<svg width="340" height="103" viewBox="0 0 340 103" fill="none" xmlns="http://www.w3.org/2000/svg">
<path d="M329.701 44.6387H325.019V40.3474H329.701V44.6387ZM329.701 54.4698H325.019V50.0224H329.701V54.4698ZM315.344 50.0224H320.026V54.4698H315.344V50.0224ZM315.344 40.3474H320.026V44.6387H315.344V40.3474ZM318.621 34.6516H309.18V60.1655H318.855V64.5349H307.464V71.7131H318.855V79.7496H326.658V71.7131H337.347V64.5349H326.658V60.1655H336.021V34.6516H326.424V30.5943H337.191V23.4941H326.424V16.9401H318.621V23.4941H307.542V30.5943H318.621V34.6516ZM306.372 29.9701C305.045 26.7711 302.314 21.7776 299.895 18.1104L293.107 20.3731C295.37 24.2744 298.101 29.502 299.349 32.857L306.372 29.9701ZM288.66 74.522C289.752 71.0109 291.001 65.6272 292.405 60.9458L286.397 59.4633C285.929 63.4426 284.759 69.2944 283.822 73.0396L288.66 74.522ZM292.327 74.6L283.744 76.3946V57.0446H291.937V55.4841C292.717 57.0446 294.044 60.1655 294.434 61.8821C295.136 61.1799 297.321 60.6337 298.725 60.6337H300.13C298.725 68.7482 296.306 75.8484 292.951 80.92L292.327 74.6ZM274.928 36.5242C277.034 34.0274 278.985 31.3746 280.858 28.5657C284.057 30.9844 287.334 33.7933 289.596 36.5242H274.928ZM305.201 52.8313L303.875 53.0653H301.768C304.109 47.4476 306.762 39.8012 308.322 35.5879L303.173 34.1054L301.846 34.7296H292.717V42.6101H298.725C297.243 46.9014 295.604 51.4268 294.746 52.6752C293.888 54.1577 293.029 54.7038 291.937 55.094V49.5542H283.744V43.8585H289.752V36.6802C290.142 37.2264 290.533 37.6945 290.923 38.1627L294.122 30.8284C292.093 28.1756 288.348 24.8986 284.447 22.1677C284.993 21.0754 285.539 19.905 286.007 18.8127L279.219 16.4719C276.176 23.4941 270.87 30.2042 265.643 34.6516C266.735 36.6802 268.53 41.1276 268.92 42.9222C270.012 41.9079 271.105 40.8935 272.197 39.7232V43.8585H277.19V49.5542H268.296V57.0446H277.19V77.643C273.289 78.2672 269.7 78.9694 266.813 79.5156L268.842 87.7862C275.552 86.1476 284.135 84.041 292.249 81.9343C291.547 82.8706 290.767 83.8069 289.986 84.5872C291.625 85.6015 294.434 88.4884 295.526 90.2049C297.945 87.6301 300.13 84.2751 301.924 80.0617C306.684 87.0839 313.628 88.6444 323.147 88.6444C327.906 88.6444 333.29 88.4884 337.581 88.2543C337.893 85.9916 338.908 82.0904 340 80.2958C335.084 80.842 328.062 81.1541 323.537 81.1541C315.032 81.1541 308.478 79.9057 304.733 72.3373C306.293 67.0317 307.542 61.0238 308.322 54.3917L305.201 52.8313ZM268.842 61.648C269.934 66.0954 270.948 71.8692 271.183 75.6144L276.488 73.9759C276.176 70.2307 275.006 64.6129 273.835 60.2436L268.842 61.648Z" fill="#F0B90B"/>
<path d="M177.731 59.6776H153.546V55.5953H144.457V59.6776H121.889V84.6334H130.747V67.303H144.457V88.2535H153.546V67.303H168.72V76.0067C168.72 76.931 168.257 77.2391 167.025 77.3161C166.024 77.3161 161.402 77.3161 157.705 77.162C158.86 79.2417 160.17 82.3997 160.709 84.7104C166.409 84.7104 170.645 84.7104 173.649 83.478C176.807 82.2456 177.731 80.166 177.731 76.0837V59.6776ZM137.217 36.8015C138.68 40.8837 139.836 46.1984 140.067 49.6645L144.072 48.4321C143.764 44.966 142.531 39.7284 141.145 35.6461L137.217 36.8015ZM172.032 30.4855C170.953 33.4124 169.567 35.9542 167.718 38.2649C165.793 35.8002 164.329 33.2584 163.097 30.4855H172.032ZM184.278 30.4855V23.6304H165.408C166.178 21.7818 166.948 19.8562 167.487 17.9306L159.862 16.3131C158.321 22.2439 155.086 27.6356 150.927 31.4868V28.2518H146.306C147.923 26.0951 150.003 23.1682 152.159 20.1643L144.765 17.6225C143.764 20.2413 141.915 24.1695 140.452 26.6343L144.38 28.2518H137.91V16.3131H129.976V28.2518H123.198L128.051 26.0181C127.281 23.7844 125.278 20.3183 123.352 17.7765L117.036 20.4724C118.654 22.8601 120.271 25.9411 121.042 28.2518H117.191V56.0575H123.661V47.8929C124.816 48.5091 126.356 49.2023 127.05 49.7415C128.436 46.5065 129.668 41.4229 130.285 36.7244L125.817 35.8002C125.432 39.3433 124.816 43.1174 123.661 46.1984V33.6435H131.132V55.3642H136.755V33.6435H144.38V54.2089H150.927V34.3367C152.39 35.8002 153.931 37.5717 154.778 38.573C155.934 37.7258 157.012 36.6474 158.013 35.4921C159.4 38.1879 160.863 40.7297 162.635 43.1174C159.4 45.5822 155.471 47.3538 151.004 48.8172C152.39 50.4347 154.547 53.9778 155.24 55.6723C160.016 53.9008 164.252 51.6671 167.795 48.8172C171.492 52.1292 175.729 54.8251 180.658 56.5966C181.66 54.7481 183.816 51.8211 185.511 50.3577C180.812 48.8942 176.653 46.6605 173.187 43.7336C176.268 40.0365 178.656 35.6461 180.427 30.4855H184.278Z" fill="#F0B90B"/>
<path d="M203.226 33.0273H249.056V41.731H258.838V24.5547H231.648C230.493 21.9358 228.875 18.6238 227.412 16.005L217.784 18.2387C218.708 20.1643 219.786 22.398 220.711 24.5547H193.906V41.731H203.226V33.0273ZM235.962 54.671C234.036 59.0614 231.417 62.7586 228.182 65.9165C223.869 64.299 219.709 62.7586 215.55 61.2951C216.937 59.2925 218.323 57.0588 219.786 54.671H235.962ZM260.301 54.671V46.0443H224.485C226.102 42.8864 227.566 39.8054 228.798 36.7244L218.554 34.7218C217.168 38.2649 215.319 42.1931 213.316 46.0443H192.443V54.671H208.387C205.999 58.5222 203.534 62.1424 201.224 65.1463L201.07 65.3004C206.846 67.1489 213.162 69.5367 219.401 72.0785C212.238 75.8526 203.303 78.2404 192.674 79.7038C194.446 81.7065 197.141 85.9428 198.143 88.1765C210.621 85.7887 221.173 82.1686 229.569 76.3918C238.657 80.4741 246.976 84.7874 252.445 88.4075L259.916 80.6281C254.216 77.162 246.129 73.3108 237.348 69.6137C241.122 65.5314 244.28 60.5249 246.591 54.671H260.301Z" fill="#F0B90B"/>
<path d="M44.3637 -0.373163L17.1552 15.3317L27.1584 21.1335L44.3637 11.2305L61.569 21.1335L71.5721 15.3317L44.3637 -0.373163Z" fill="#F0B90B"/>
<path d="M61.569 29.3361L71.5721 35.1379V46.7415L54.3668 56.6446V76.4508L44.3637 82.2526L34.3606 76.4508V56.6446L17.1552 46.7415V35.1379L27.1584 29.3361L44.3637 39.2392L61.569 29.3361Z" fill="#F0B90B"/>
<path d="M71.5721 54.9441V66.5477L61.569 72.3495V60.7459L71.5721 54.9441Z" fill="#F0B90B"/>
<path d="M61.4691 80.552L78.6744 70.649V50.8428L88.6775 45.041V76.4508L61.4691 92.1557V80.552Z" fill="#F0B90B"/>
<path d="M78.6744 31.0366L68.6713 25.2348L78.6744 19.433L88.6775 25.2348V36.8384L78.6744 42.6402V31.0366Z" fill="#F0B90B"/>
<path d="M34.3606 96.357V84.7534L44.3637 90.5552L54.3668 84.7534V96.357L44.3637 102.159L34.3606 96.357Z" fill="#F0B90B"/>
<path d="M27.1584 72.3495L17.1552 66.5477V54.9441L27.1584 60.7459V72.3495Z" fill="#F0B90B"/>
<path d="M44.3637 31.0366L34.3606 25.2348L44.3637 19.433L54.3668 25.2348L44.3637 31.0366Z" fill="#F0B90B"/>
<path d="M20.0561 25.2348L10.0529 31.0366V42.6402L0.0498202 36.8384V25.2348L10.0529 19.433L20.0561 25.2348Z" fill="#F0B90B"/>
<path d="M0.0498202 45.041L10.0529 50.8428V70.649L27.2582 80.552V92.1557L0.0498202 76.4508V45.041Z" fill="#F0B90B"/>
</svg>
