<svg width="473" height="126" viewBox="0 0 473 126" fill="none" xmlns="http://www.w3.org/2000/svg">
<path d="M54.5498 14.2L33.4497 26.4L20.9497 19.3L54.4497 0L87.9497 19.3L75.6497 26.4L54.5498 14.2Z" fill="#F0B90B"/>
<path d="M75.7498 36.6L88.0498 43.7V57.9L66.9497 70.1V94.5L54.6497 101.6L42.3496 94.5V70.1L21.2498 57.9V43.7L33.5498 36.6L54.6497 48.8L75.7498 36.6Z" fill="#F0B90B"/>
<path d="M88.0498 68.1V82.3L75.7498 89.4V75.2L88.0498 68.1Z" fill="#F0B90B"/>
<path d="M75.7498 99.6L96.8496 87.4H96.9497V63L109.25 55.9V94.5L75.7498 113.8V99.6Z" fill="#F0B90B"/>
<path d="M96.8496 38.6L84.5498 31.5L96.8496 24.4L109.15 31.5V45.7L96.8496 52.8V38.6Z" fill="#F0B90B"/>
<path d="M42.2498 118.9V104.7L54.5498 111.8L66.8496 104.7V118.9L54.5498 126L42.2498 118.9Z" fill="#F0B90B"/>
<path d="M33.4497 89.4L21.1497 82.3V68.1L33.4497 75.2V89.4Z" fill="#F0B90B"/>
<path d="M54.5498 38.6L42.2498 31.5L54.5498 24.4L66.8496 31.5L54.5498 38.6Z" fill="#F0B90B"/>
<path d="M24.6497 31.5L12.3496 38.6V52.8L0.0498047 45.7V31.5L12.3496 24.4L24.6497 31.5Z" fill="#F0B90B"/>
<path d="M0.0498047 55.9L12.3496 63H12.4497V87.4L33.5498 99.6V113.8L0.0498047 94.5V55.9Z" fill="#F0B90B"/>
<path d="M162.2 63.5H139V14.7H161.7C171.7 14.7 177.8 19.7 177.8 27.3V27.4C177.8 32.9 174.9 36 171.4 37.9C177 40.1 180.5 43.3 180.5 49.9V50C180.5 59.1 173.3 63.5 162.2 63.5ZM167.1 29.1C167.1 25.9 164.6 24.1 160.1 24.1H149.5V34.4H159.4C164.1 34.4 167.1 32.9 167.1 29.2V29.1ZM169.8 48.7C169.8 45.4 167.4 43.4 161.9 43.4H149.5V54.1H162.3C167 54.1 169.9 52.4 169.9 48.8V48.7H169.8ZM192.3 63.5V14.7H203V63.5H192.3ZM251.6 63.5L228 32.5V63.5H217.4V14.7H227.3L250.2 44.8V14.7H260.8V63.5H251.6ZM309 63.5L304.5 52.6H283.9L279.4 63.5H268.5L289.4 14.3H299.3L320.2 63.5H309ZM294.2 27.3L287.7 43.1H300.7L294.2 27.3ZM362.3 63.5L338.7 32.5V63.5H328.1V14.7H338L360.9 44.8V14.7H371.5V63.5H362.3ZM406.8 64.4C392.4 64.4 381.8 53.3 381.8 39.3V39.2C381.8 25.3 392.3 14 407.3 14C416.5 14 422 17.1 426.5 21.5L419.7 29.4C415.9 26 412.1 23.9 407.2 23.9C399 23.9 393 30.7 393 39.1V39.2C393 47.6 398.8 54.5 407.2 54.5C412.8 54.5 416.2 52.3 420 48.8L426.8 55.7C421.8 61 416.3 64.4 406.8 64.4ZM435.5 63.5V14.7H472.3V24.3H446.2V34.2H469.2V43.8H446.2V54.1H472.7V63.7H435.5V63.5ZM323.9 112.9C313.8 112.9 306.3 105.1 306.3 95.1C306.3 85.2 313.7 77.2 324.1 77.2C330.5 77.2 334.3 79.4 337.6 82.6L333.7 87.1C330.9 84.5 328 82.8 324 82.8C317.4 82.8 312.6 88.2 312.6 95C312.6 101.8 317.4 107.3 324 107.3C328.2 107.3 331 105.6 333.9 102.8L337.8 106.7C334.3 110.5 330.3 112.9 323.9 112.9ZM351.9 97.7V112.3H345.8V77.7H351.9V92.1H368.4V77.7H374.5V112.3H368.4V97.7H351.9ZM417.9 112.3H411.5L408 104H391.7L388.1 112.3H381.9L397.1 77.5H402.7L417.9 112.3ZM399.8 84.7L393.9 98.5H405.8L399.8 84.7ZM431.5 77.7V112.3H425.4V77.7H431.5ZM466.7 77.7H472.7V112.3H467.6L448.5 87.7V112.3H442.5V77.7H448.1L466.6 101.6V77.7H466.7ZM290 92.2H139V98H290V92.2Z" fill="#F0B90B"/>
</svg>
