<svg id="svg" xmlns="http://www.w3.org/2000/svg" xmlns:xlink="http://www.w3.org/1999/xlink" width="400" height="400" viewBox="0, 0, 400,400" version="1.1"><g id="svgg"><path id="path0" d="M138.550 61.550 L 77.200 122.900 99.750 145.450 L 122.300 168.000 161.150 129.150 L 200.000 90.300 238.900 129.200 L 277.800 168.100 300.350 145.550 L 322.900 123.000 261.500 61.600 C 227.730 27.830,200.055 0.200,200.000 0.200 C 199.945 0.200,172.292 27.808,138.550 61.550 M177.000 177.100 L 154.100 200.000 177.050 222.950 L 200.000 245.900 222.950 222.950 L 245.900 200.000 223.000 177.100 C 210.405 164.505,200.055 154.200,200.000 154.200 C 199.945 154.200,189.595 164.505,177.000 177.100 M22.600 177.500 L 0.100 200.000 22.650 222.550 L 45.200 245.100 67.750 222.550 L 90.300 200.000 67.800 177.500 C 55.425 165.125,45.255 155.000,45.200 155.000 C 45.145 155.000,34.975 165.125,22.600 177.500 M332.150 177.550 L 309.600 200.101 332.200 222.700 L 354.800 245.299 377.300 222.800 C 389.675 210.425,399.800 200.210,399.800 200.100 C 399.800 199.903,354.996 155.000,354.799 155.000 C 354.744 155.000,344.552 165.148,332.150 177.550 M99.700 254.491 L 77.100 276.969 138.550 338.434 L 200.000 399.900 261.450 338.450 L 322.900 277.000 300.350 254.450 L 277.800 231.900 238.900 270.800 L 200.000 309.700 161.150 270.857 L 122.300 232.014 99.700 254.491 " stroke="none" fill="#fcfcfc" fill-rule="evenodd"></path><path id="path1" d="M138.450 61.450 L 77.000 122.900 99.650 145.550 L 122.300 168.200 161.150 129.350 L 200.000 90.500 238.900 129.400 L 277.800 168.300 300.450 145.650 L 323.100 123.000 261.600 61.500 C 227.775 27.675,200.055 0.000,200.000 0.000 C 199.945 0.000,172.247 27.653,138.450 61.450 M261.500 61.600 L 322.900 123.000 300.350 145.550 L 277.800 168.100 238.900 129.200 L 200.000 90.300 161.150 129.150 L 122.300 168.000 99.750 145.450 L 77.200 122.900 138.550 61.550 C 172.292 27.808,199.945 0.200,200.000 0.200 C 200.055 0.200,227.730 27.830,261.500 61.600 M176.900 177.000 L 153.900 200.000 176.950 223.050 L 200.000 246.100 223.050 223.050 L 246.100 200.000 223.100 177.000 C 210.450 164.350,200.055 154.000,200.000 154.000 C 199.945 154.000,189.550 164.350,176.900 177.000 M223.000 177.100 L 245.900 200.000 222.950 222.950 L 200.000 245.900 177.050 222.950 L 154.100 200.000 177.000 177.100 C 189.595 164.505,199.945 154.200,200.000 154.200 C 200.055 154.200,210.405 164.505,223.000 177.100 M22.500 177.400 L -0.100 200.000 22.550 222.650 L 45.200 245.300 67.850 222.650 L 90.500 200.000 67.900 177.400 C 55.470 164.970,45.255 154.800,45.200 154.800 C 45.145 154.800,34.930 164.970,22.500 177.400 M332.100 177.450 L 309.500 200.100 332.150 177.500 L 354.800 154.901 377.300 177.400 C 389.675 189.775,399.800 199.990,399.800 200.100 C 399.800 200.210,389.675 210.425,377.300 222.800 L 354.800 245.299 332.150 222.700 L 309.500 200.100 332.150 222.800 L 354.800 245.500 377.400 222.900 C 389.830 210.470,400.000 200.210,400.000 200.100 C 400.000 199.903,354.996 154.800,354.799 154.800 C 354.744 154.800,344.529 164.993,332.100 177.450 M67.800 177.500 L 90.300 200.000 67.750 222.550 L 45.200 245.100 22.650 222.550 L 0.100 200.000 22.600 177.500 C 34.975 165.125,45.145 155.000,45.200 155.000 C 45.255 155.000,55.425 165.125,67.800 177.500 M99.600 254.390 L 76.900 276.968 138.450 338.534 L 200.000 400.100 261.550 338.550 L 323.100 277.000 300.450 254.350 L 277.800 231.700 238.900 270.600 L 200.000 309.500 161.150 270.656 L 122.300 231.812 99.600 254.390 M238.900 270.800 L 277.800 231.900 300.350 254.450 L 322.900 277.000 261.450 338.450 L 200.000 399.900 138.550 338.434 L 77.100 276.969 99.700 254.491 L 122.300 232.014 161.150 270.857 L 200.000 309.700 238.900 270.800 " stroke="none" fill="#f4bc2f" fill-rule="evenodd"></path><path id="path2" d="" stroke="none" fill="#f8dc100" fill-rule="evenodd"></path><path id="path3" d="" stroke="none" fill="#f8dc100" fill-rule="evenodd"></path><path id="path4" d="" stroke="none" fill="#f8dc100" fill-rule="evenodd"></path></g></svg>