<svg width="384" height="215" viewBox="0 0 384 215" fill="none" xmlns="http://www.w3.org/2000/svg">
<path d="M26.7 213.2H0V157H26.1C37.6 157 44.6 162.7 44.6 171.5V171.7C44.6 178 41.2 181.6 37.2 183.8C43.7 186.3 47.7 190.1 47.7 197.6V197.8C47.7 208.1 39.4 213.2 26.7 213.2ZM32.3 173.7C32.3 170 29.4 167.9 24.2 167.9H12V179.8H23.4C28.9 179.8 32.3 178 32.3 173.9V173.7ZM35.5 196.1C35.5 192.3 32.7 190 26.4 190H12V202.4H26.7C32.2 202.4 35.4 200.5 35.4 196.3V196.1H35.5ZM61.3 213.2V157H73.7V213.2H61.3ZM129.6 213.2L102.4 177.5V213.2H90.2V157H101.6L127.9 191.6V157H140.1V213.2H129.6ZM195.6 213.2L190.5 200.6H166.7L161.6 213.2H149L173.1 156.6H184.5L208.6 213.2H195.6ZM178.6 171.5L171.1 189.7H186L178.6 171.5ZM257 213.2L229.8 177.5V213.2H217.6V157H229L255.3 191.6V157H267.5V213.2H257ZM308.2 214.2C291.7 214.2 279.4 201.4 279.4 185.3V185.1C279.4 169.1 291.4 156 308.7 156C319.3 156 325.6 159.5 330.8 164.7L322.9 173.8C318.6 169.9 314.2 167.5 308.5 167.5C299 167.5 292.2 175.4 292.2 185V185.2C292.2 194.8 298.9 202.9 308.5 202.9C314.9 202.9 318.9 200.3 323.3 196.3L331.2 204.2C325.5 210.3 319.1 214.2 308.2 214.2ZM341.2 213.2V157H383.6V168H353.5V179.4H380V190.4H353.5V202.2H384V213.2H341.2ZM170.5 26.9L158 19.7L192 0L226.1 19.7L213.6 26.9L192 14.5L170.5 26.9ZM235 39.3V53.8L247.5 46.6V32.1L235 24.8L222.5 32L235 39.3ZM179.5 32.1L192 39.3L204.5 32.1L192 24.8L179.5 32.1ZM226.1 44.5L213.6 37.3L192 49.7L170.5 37.3L158 44.5V59L179.5 71.4V96.2L192 103.4L204.5 96.2V71.4L226.1 59V44.5ZM235 89L213.5 101.4V115.9L247.6 96.2V56.9L235 64.2V89ZM213.5 91.1L226 83.9V69.3L213.5 76.5V91.1ZM179.5 106.6V121.1L192 128.3L204.5 121.1V106.6L192 113.8L179.5 106.6ZM136.4 46.6L148.9 53.8V39.3L161.4 32.1L149 24.8L136.5 32V46.6H136.4ZM149 64.2L136.5 57V96.3L170.6 116V101.5L149 89V64.2ZM170.5 76.6L158 69.4V83.9L170.5 91.1V76.6Z" fill="#F0B90B"/>
</svg>
