<svg width="825" height="952" viewBox="0 0 825 952" fill="none" xmlns="http://www.w3.org/2000/svg">
<path d="M638.286 606.507V422.281L731.359 475.999V660.225L638.286 606.507Z" fill="url(#paint0_linear)"/>
<path d="M186.148 606.507V422.281L93.0737 475.999V660.225L186.148 606.507Z" fill="url(#paint1_linear)"/>
<path d="M0 422.282L93.0739 476.001L186.148 422.282L93.0739 368.451L0 422.282Z" fill="url(#paint2_linear)"/>
<path d="M252.645 752.395L345.719 698.677L186.148 606.508L93.0737 660.226L252.645 752.395Z" fill="url(#paint3_linear)"/>
<path d="M571.788 752.395L731.359 660.226L638.285 606.508L478.714 698.677L571.788 752.395Z" fill="url(#paint4_linear)"/>
<path d="M478.714 806.112V698.676L571.788 752.394V859.83L478.714 806.112Z" fill="url(#paint5_linear)"/>
<path d="M824.433 422.282L731.359 476.001L638.286 422.282L731.359 368.451L824.433 422.282Z" fill="url(#paint6_linear)"/>
<path d="M345.719 806.112V698.676L252.646 752.394V859.83L345.719 806.112Z" fill="url(#paint7_linear)"/>
<path d="M478.714 621.887V514.338L571.788 568.169V675.606L478.714 621.887Z" fill="url(#paint8_linear)"/>
<path d="M252.646 199.605V307.041L159.572 253.323V145.887L252.646 199.605Z" fill="url(#paint9_linear)"/>
<path d="M571.788 199.605V307.041L664.862 253.323V145.887L571.788 199.605Z" fill="url(#paint10_linear)"/>
<path d="M731.359 291.775L730.794 399.098L638.286 345.493V237.943L731.359 291.775Z" fill="url(#paint11_linear)"/>
<path d="M252.646 199.605V307.041L412.217 214.985V107.436L252.646 199.605Z" fill="url(#paint12_linear)"/>
<path d="M571.788 199.605V307.041L412.217 214.985V107.436L571.788 199.605Z" fill="url(#paint13_linear)"/>
<path d="M345.719 621.887V514.338L252.646 568.169V675.606L345.719 621.887Z" fill="url(#paint14_linear)"/>
<path d="M412.217 291.888V368.45L319.143 314.732V237.943L412.217 291.888Z" fill="url(#paint15_linear)"/>
<path d="M412.217 291.888V368.45L505.291 314.732V237.943L412.217 291.888Z" fill="url(#paint16_linear)"/>
<path d="M252.646 568.056L345.72 514.337L252.646 460.619L159.572 514.337L252.646 568.056Z" fill="url(#paint17_linear)"/>
<path d="M571.788 568.169L478.714 514.337L571.788 460.619L664.862 514.337L571.788 568.169Z" fill="url(#paint18_linear)"/>
<path d="M93.0737 291.775V399.211L186.148 345.493V237.943L93.0737 291.775Z" fill="url(#paint19_linear)"/>
<path d="M319.143 790.732L412.217 844.563L505.291 790.732L412.217 737.014L319.143 790.732Z" fill="url(#paint20_linear)"/>
<path d="M664.862 514.338V621.775L571.788 675.493V568.057L664.862 514.338ZM731.36 291.775L730.681 399.212L823.529 345.607V238.283L731.36 291.775ZM824.433 422.282V714.057L571.788 859.944V752.508L731.36 660.339V476L824.433 422.282ZM412.217 844.564V952L505.291 898.282V790.846L412.217 844.564ZM412.217 476V767.775L505.291 714.057V529.719L664.862 437.55V330.113L412.217 476Z" fill="url(#paint21_linear)"/>
<path d="M252.645 568.056V675.492L159.571 621.774V514.338L252.645 568.056ZM0 237.943V345.38L93.0739 399.098V291.662L0 237.943ZM93.0739 476V660.225L252.645 752.394V859.831L0 713.943V422.169L93.0739 476ZM319.143 790.732V898.169L412.217 951.887V844.45L319.143 790.732ZM159.571 330.113V437.549L319.143 529.718V713.943L412.217 767.775V476L159.571 330.113Z" fill="url(#paint22_linear)"/>
<path d="M412.217 184.225L505.291 237.943L412.217 291.888L319.143 237.943L412.217 184.225ZM0 237.943L93.0739 291.662L186.148 237.943L93.0739 184.225L0 237.943ZM638.286 237.943L731.359 291.662L823.642 238.17L730.794 184.564L638.286 237.943ZM412.217 0L159.571 145.887L252.645 199.606L412.217 107.436L571.788 199.606L664.862 145.887L412.217 0ZM412.217 368.45L252.645 276.281L159.571 330L412.217 476L664.862 330.113L571.788 276.394L412.217 368.45Z" fill="url(#paint23_linear)"/>
<path d="M252.646 199.605V307.041L159.572 253.323V145.887L252.646 199.605Z" fill="url(#paint24_linear)"/>
<path d="M252.646 199.605V307.041L412.217 214.985V107.436L252.646 199.605Z" fill="url(#paint25_linear)"/>
<path d="M412.217 291.888V399.098L319.369 345.493L319.143 237.943L412.217 291.888Z" fill="url(#paint26_linear)"/>
<path d="M93.0737 291.775V399.211L186.148 345.493V237.943L93.0737 291.775Z" fill="url(#paint27_linear)"/>
<path d="M412.217 184.225L505.291 237.943L412.217 291.888L319.143 237.943L412.217 184.225ZM0 237.943L93.0739 291.662L186.148 237.943L93.0739 184.225L0 237.943ZM638.286 237.943L731.359 291.662L823.642 238.17L730.794 184.564L638.286 237.943ZM412.217 0L159.571 145.887L252.645 199.606L412.217 107.436L571.788 199.606L664.862 145.887L412.217 0ZM412.217 368.45L252.645 276.281L159.571 330L412.217 476L664.862 330.113L571.788 276.394L412.217 368.45Z" fill="url(#paint28_linear)"/>
<path d="M93.0739 291.775V399.211L0 345.493V237.943L93.0739 291.775Z" fill="url(#paint29_linear)"/>
<path d="M571.788 199.605V307.041L664.862 253.323V145.887L571.788 199.605Z" fill="url(#paint30_linear)"/>
<path d="M571.788 199.605V307.041L412.217 214.985V107.436L571.788 199.605Z" fill="url(#paint31_linear)"/>
<path d="M412.217 291.888V399.098L505.291 345.38V237.943L412.217 291.888Z" fill="url(#paint32_linear)"/>
<path d="M731.359 291.775L730.794 399.098L638.286 345.493V237.943L731.359 291.775Z" fill="url(#paint33_linear)"/>
<path d="M731.133 291.775L731.699 399.098L824.207 345.493V237.943L731.133 291.775Z" fill="url(#paint34_linear)"/>
<path d="M412.217 476.001V583.098L664.975 437.55L664.862 330.113L412.217 476.001Z" fill="url(#paint35_linear)"/>
<path d="M412.782 474.87V581.967L160.024 436.419L160.137 328.982L412.782 474.87Z" fill="url(#paint36_linear)"/>
<defs>
<linearGradient id="paint0_linear" x1="638.311" y1="541.242" x2="731.396" y2="541.242" gradientUnits="userSpaceOnUse">
<stop stop-color="#14161B"/>
<stop offset="1" stop-color="#1D2128"/>
</linearGradient>
<linearGradient id="paint1_linear" x1="186.181" y1="541.242" x2="93.0967" y2="541.242" gradientUnits="userSpaceOnUse">
<stop stop-color="#14161B"/>
<stop offset="1" stop-color="#1D2128"/>
</linearGradient>
<linearGradient id="paint2_linear" x1="0.011196" y1="422.242" x2="186.178" y2="422.242" gradientUnits="userSpaceOnUse">
<stop stop-color="#2B323A"/>
<stop offset="0.3839" stop-color="#20252C"/>
<stop offset="0.7318" stop-color="#14161B"/>
</linearGradient>
<linearGradient id="paint3_linear" x1="219.426" y1="752.376" x2="219.426" y2="606.503" gradientUnits="userSpaceOnUse">
<stop stop-color="#2D343F"/>
<stop offset="1" stop-color="#14161B"/>
</linearGradient>
<linearGradient id="paint4_linear" x1="605.065" y1="752.376" x2="605.065" y2="606.503" gradientUnits="userSpaceOnUse">
<stop stop-color="#2D343F"/>
<stop offset="1" stop-color="#14161B"/>
</linearGradient>
<linearGradient id="paint5_linear" x1="478.736" y1="779.248" x2="571.821" y2="779.248" gradientUnits="userSpaceOnUse">
<stop stop-color="#14161B"/>
<stop offset="1" stop-color="#303842"/>
</linearGradient>
<linearGradient id="paint6_linear" x1="824.481" y1="422.242" x2="638.314" y2="422.242" gradientUnits="userSpaceOnUse">
<stop stop-color="#2B323A"/>
<stop offset="0.3839" stop-color="#20252C"/>
<stop offset="0.7318" stop-color="#14161B"/>
</linearGradient>
<linearGradient id="paint7_linear" x1="252.671" y1="779.248" x2="345.756" y2="779.248" gradientUnits="userSpaceOnUse">
<stop stop-color="#303842"/>
<stop offset="1" stop-color="#14161B"/>
</linearGradient>
<linearGradient id="paint8_linear" x1="478.736" y1="594.985" x2="571.821" y2="594.985" gradientUnits="userSpaceOnUse">
<stop stop-color="#14161B"/>
<stop offset="0.5172" stop-color="#22272D"/>
<stop offset="1" stop-color="#2B323A"/>
</linearGradient>
<linearGradient id="paint9_linear" x1="182.858" y1="266.77" x2="229.401" y2="186.155" gradientUnits="userSpaceOnUse">
<stop stop-color="#14161B"/>
<stop offset="1" stop-color="#323842"/>
</linearGradient>
<linearGradient id="paint10_linear" x1="595.091" y1="186.155" x2="641.634" y2="266.77" gradientUnits="userSpaceOnUse">
<stop stop-color="#323842"/>
<stop offset="1" stop-color="#14161B"/>
</linearGradient>
<linearGradient id="paint11_linear" x1="707.873" y1="278.142" x2="661.196" y2="358.988" gradientUnits="userSpaceOnUse">
<stop stop-color="#2D343F"/>
<stop offset="1" stop-color="#14161B"/>
</linearGradient>
<linearGradient id="paint12_linear" x1="309.187" y1="166.961" x2="355.73" y2="247.576" gradientUnits="userSpaceOnUse">
<stop stop-color="#2D343F"/>
<stop offset="1" stop-color="#14161B"/>
</linearGradient>
<linearGradient id="paint13_linear" x1="468.762" y1="247.576" x2="515.305" y2="166.961" gradientUnits="userSpaceOnUse">
<stop stop-color="#14161B"/>
<stop offset="1" stop-color="#2D343F"/>
</linearGradient>
<linearGradient id="paint14_linear" x1="345.756" y1="594.985" x2="252.671" y2="594.985" gradientUnits="userSpaceOnUse">
<stop stop-color="#14161B"/>
<stop offset="0.5172" stop-color="#22272D"/>
<stop offset="1" stop-color="#2B323A"/>
</linearGradient>
<linearGradient id="paint15_linear" x1="355.947" y1="358.572" x2="375.46" y2="247.907" gradientUnits="userSpaceOnUse">
<stop stop-color="#14161B"/>
<stop offset="1" stop-color="#2D343F"/>
</linearGradient>
<linearGradient id="paint16_linear" x1="446.239" y1="374.493" x2="471.365" y2="231.991" gradientUnits="userSpaceOnUse">
<stop stop-color="#14161B"/>
<stop offset="1" stop-color="#2D343F"/>
</linearGradient>
<linearGradient id="paint17_linear" x1="211.686" y1="574.371" x2="268.898" y2="490.617" gradientUnits="userSpaceOnUse">
<stop stop-color="#2B323A"/>
<stop offset="0.4828" stop-color="#22272D"/>
<stop offset="1" stop-color="#14161B"/>
</linearGradient>
<linearGradient id="paint18_linear" x1="612.807" y1="574.372" x2="555.595" y2="490.618" gradientUnits="userSpaceOnUse">
<stop stop-color="#2B323A"/>
<stop offset="0.4828" stop-color="#22272D"/>
<stop offset="1" stop-color="#14161B"/>
</linearGradient>
<linearGradient id="paint19_linear" x1="161.356" y1="356.21" x2="69.7841" y2="197.603" gradientUnits="userSpaceOnUse">
<stop stop-color="#14161B"/>
<stop offset="1" stop-color="#2D343F"/>
</linearGradient>
<linearGradient id="paint20_linear" x1="412.244" y1="737.024" x2="412.244" y2="844.508" gradientUnits="userSpaceOnUse">
<stop stop-color="#14161B"/>
<stop offset="0.5172" stop-color="#22272D"/>
<stop offset="1" stop-color="#2B323A"/>
</linearGradient>
<linearGradient id="paint21_linear" x1="424.51" y1="932.993" x2="822.336" y2="239.348" gradientUnits="userSpaceOnUse">
<stop stop-color="#303842"/>
<stop offset="1" stop-color="#14161B"/>
</linearGradient>
<linearGradient id="paint22_linear" x1="0.0132131" y1="713.987" x2="403.651" y2="480.947" gradientUnits="userSpaceOnUse">
<stop stop-color="#14161B"/>
<stop offset="0.3628" stop-color="#1C1F25"/>
<stop offset="0.9884" stop-color="#303741"/>
<stop offset="1" stop-color="#303842"/>
</linearGradient>
<linearGradient id="paint23_linear" x1="411.834" y1="475.985" x2="411.834" y2="-0.0226127" gradientUnits="userSpaceOnUse">
<stop stop-color="#1E222A"/>
<stop offset="1" stop-color="#2D343F"/>
</linearGradient>
<linearGradient id="paint24_linear" x1="182.858" y1="266.77" x2="229.401" y2="186.155" gradientUnits="userSpaceOnUse">
<stop offset="0.2478" stop-color="#FFC400" stop-opacity="0"/>
<stop offset="0.776042" stop-color="#FFC70E" stop-opacity="0.2185"/>
<stop offset="1" stop-color="#FFD759" stop-opacity="0.5"/>
</linearGradient>
<linearGradient id="paint25_linear" x1="355.73" y1="247.576" x2="309.186" y2="166.961" gradientUnits="userSpaceOnUse">
<stop offset="0.2478" stop-color="#FFC400" stop-opacity="0"/>
<stop offset="0.791667" stop-color="#FFC70E" stop-opacity="0.2185"/>
<stop offset="1" stop-color="#FFD759" stop-opacity="0.5"/>
</linearGradient>
<linearGradient id="paint26_linear" x1="342.446" y1="358.851" x2="388.962" y2="278.283" gradientUnits="userSpaceOnUse">
<stop offset="0.2478" stop-color="#FFC400" stop-opacity="0"/>
<stop offset="0.78125" stop-color="#FFC70E" stop-opacity="0.2185"/>
<stop offset="1" stop-color="#FFD759" stop-opacity="0.5"/>
</linearGradient>
<linearGradient id="paint27_linear" x1="162.908" y1="358.901" x2="116.365" y2="278.286" gradientUnits="userSpaceOnUse">
<stop offset="0.2478" stop-color="#FFC400" stop-opacity="0"/>
<stop offset="0.807292" stop-color="#FFC70E" stop-opacity="0.2185"/>
<stop offset="1" stop-color="#FFD759" stop-opacity="0.5"/>
</linearGradient>
<linearGradient id="paint28_linear" x1="411.834" y1="475.985" x2="411.834" y2="-0.0226127" gradientUnits="userSpaceOnUse">
<stop offset="0.00540541" stop-color="#FCD73D"/>
<stop offset="1" stop-color="#F0B90B"/>
</linearGradient>
<linearGradient id="paint29_linear" x1="23.2824" y1="358.901" x2="69.825" y2="278.287" gradientUnits="userSpaceOnUse">
<stop offset="0.2478" stop-color="#FFC400" stop-opacity="0"/>
<stop offset="0.776042" stop-color="#FFC70E" stop-opacity="0.2185"/>
<stop offset="1" stop-color="#FFD759" stop-opacity="0.5"/>
</linearGradient>
<linearGradient id="paint30_linear" x1="641.635" y1="266.77" x2="595.091" y2="186.155" gradientUnits="userSpaceOnUse">
<stop offset="0.2478" stop-color="#FFC400" stop-opacity="0"/>
<stop offset="0.833333" stop-color="#FFC70E" stop-opacity="0.2185"/>
<stop offset="1" stop-color="#FFD759" stop-opacity="0.5"/>
</linearGradient>
<linearGradient id="paint31_linear" x1="468.762" y1="247.576" x2="515.305" y2="166.961" gradientUnits="userSpaceOnUse">
<stop offset="0.2478" stop-color="#FFC400" stop-opacity="0"/>
<stop offset="0.828125" stop-color="#FFC70E" stop-opacity="0.2185"/>
<stop offset="1" stop-color="#FFD759" stop-opacity="0.5"/>
</linearGradient>
<linearGradient id="paint32_linear" x1="482.047" y1="358.848" x2="435.531" y2="278.279" gradientUnits="userSpaceOnUse">
<stop offset="0.2478" stop-color="#FFC400" stop-opacity="0"/>
<stop offset="0.807292" stop-color="#FFCD29" stop-opacity="0.229959"/>
<stop offset="1" stop-color="#FFD759" stop-opacity="0.5"/>
</linearGradient>
<linearGradient id="paint33_linear" x1="661.196" y1="358.988" x2="707.873" y2="278.142" gradientUnits="userSpaceOnUse">
<stop offset="0.40625" stop-color="#FFC400" stop-opacity="0"/>
<stop offset="0.838542" stop-color="#FFD037" stop-opacity="0.186842"/>
<stop offset="1" stop-color="#FFD759" stop-opacity="0.3"/>
</linearGradient>
<linearGradient id="paint34_linear" x1="801.297" y1="358.988" x2="754.62" y2="278.142" gradientUnits="userSpaceOnUse">
<stop offset="0.40625" stop-color="#FFC400" stop-opacity="0"/>
<stop offset="0.838542" stop-color="#FFD037" stop-opacity="0.186842"/>
<stop offset="1" stop-color="#FFD759" stop-opacity="0.3"/>
</linearGradient>
<linearGradient id="paint35_linear" x1="561.951" y1="497.064" x2="515.396" y2="416.429" gradientUnits="userSpaceOnUse">
<stop offset="0.416667" stop-color="#FFC400" stop-opacity="0"/>
<stop offset="0.796875" stop-color="#FFC70E" stop-opacity="0.2185"/>
<stop offset="1" stop-color="#FFD759" stop-opacity="0.5"/>
</linearGradient>
<linearGradient id="paint36_linear" x1="263.048" y1="495.933" x2="309.603" y2="415.298" gradientUnits="userSpaceOnUse">
<stop offset="0.416667" stop-color="#FFC400" stop-opacity="0"/>
<stop offset="0.796875" stop-color="#FFC70E" stop-opacity="0.2185"/>
<stop offset="1" stop-color="#FFD759" stop-opacity="0.5"/>
</linearGradient>
</defs>
</svg>
