<svg width="443" height="102" viewBox="0 0 443 102" fill="none" xmlns="http://www.w3.org/2000/svg">
<path d="M300.9 81.2H280V25H300.9C318.6 25 330.8 37.1 330.8 53C330.8 68.9 318.5 81.2 300.9 81.2ZM300.9 34H289.8V72.2H300.9C312.7 72.2 320.4 64.3 320.4 53.2C320.4 42.1 312.7 34 300.9 34ZM383 33.8H351.2V48.4H379.4V57.2H351.2V72.4H383.4V81.2H341.4V25H383V33.8ZM431.2 81.2L416.4 59.9L401.6 81.2H390.3L410.8 52.6L391.1 25H402.7L416.7 45.1L430.7 25H442L422.4 52.4L442.8 81.1H431.2V81.2Z" fill="#F0B90B"/>
<path d="M44.3499 -0.373047L17.1499 15.327L27.1499 21.127L44.3499 11.227L61.5498 21.127L71.5498 15.327L44.3499 -0.373047Z" fill="#F0B90B"/>
<path d="M61.5498 29.327L71.5498 35.127V46.727L54.3499 56.627V76.4269L44.3499 82.227L34.3499 76.4269V56.627L17.1499 46.727V35.127L27.1499 29.327L44.3499 39.227L61.5498 29.327Z" fill="#F0B90B"/>
<path d="M71.5498 54.927V66.5269L61.5498 72.327V60.727L71.5498 54.927Z" fill="#F0B90B"/>
<path d="M61.45 80.5269L78.6499 70.627V50.827L88.6499 45.0269V76.4269L61.45 92.127V80.5269Z" fill="#F0B90B"/>
<path d="M78.6499 31.0269L68.6499 25.227L78.6499 19.427L88.6499 25.227V36.827L78.6499 42.627V31.0269Z" fill="#F0B90B"/>
<path d="M34.3499 96.327V84.727L44.3499 90.5269L54.3499 84.727V96.327L44.3499 102.127L34.3499 96.327Z" fill="#F0B90B"/>
<path d="M27.1499 72.327L17.1499 66.5269V54.927L27.1499 60.727V72.327Z" fill="#F0B90B"/>
<path d="M44.3499 31.0269L34.3499 25.227L44.3499 19.427L54.3499 25.227L44.3499 31.0269Z" fill="#F0B90B"/>
<path d="M20.0498 25.227L10.0498 31.0269V42.627L0.0498047 36.827V25.227L10.0498 19.427L20.0498 25.227Z" fill="#F0B90B"/>
<path d="M0.0498047 45.0269L10.0498 50.827V70.627L27.2498 80.5269V92.127L0.0498047 76.4269V45.0269Z" fill="#F0B90B"/>
<path d="M177.676 60.536H153.498V56.455H144.412V60.536H121.851V85.484H130.706V68.159H144.412V89.103H153.498V68.159H168.667V76.86C168.667 77.784 168.205 78.092 166.973 78.169C165.972 78.169 161.352 78.169 157.656 78.015C158.811 80.094 160.12 83.251 160.659 85.561C166.357 85.561 170.592 85.561 173.595 84.329C176.752 83.097 177.676 81.018 177.676 76.937V60.536ZM137.174 37.667C138.637 41.748 139.792 47.061 140.023 50.526L144.027 49.294C143.719 45.829 142.487 40.593 141.101 36.512L137.174 37.667ZM171.978 31.353C170.9 34.279 169.514 36.82 167.666 39.13C165.741 36.666 164.278 34.125 163.046 31.353H171.978ZM184.221 31.353V24.5H165.356C166.126 22.652 166.896 20.727 167.435 18.802L159.812 17.185C158.272 23.114 155.038 28.504 150.88 32.354V29.12H146.26C147.877 26.964 149.956 24.038 152.112 21.035L144.72 18.494C143.719 21.112 141.871 25.039 140.408 27.503L144.335 29.12H137.867V17.185H129.936V29.12H123.16L128.011 26.887C127.241 24.654 125.239 21.189 123.314 18.648L117 21.343C118.617 23.73 120.234 26.81 121.004 29.12H117.154V56.917H123.622V48.755C124.777 49.371 126.317 50.0639 127.01 50.603C128.396 47.369 129.628 42.287 130.244 37.59L125.778 36.666C125.393 40.208 124.777 43.981 123.622 47.061V34.51H131.091V56.224H136.712V34.51H144.335V55.069H150.88V35.203C152.343 36.666 153.883 38.437 154.73 39.438C155.885 38.591 156.963 37.513 157.964 36.358C159.35 39.053 160.813 41.594 162.584 43.981C159.35 46.445 155.423 48.216 150.957 49.679C152.343 51.296 154.499 54.838 155.192 56.532C159.966 54.761 164.201 52.528 167.743 49.679C171.439 52.99 175.674 55.685 180.602 57.456C181.603 55.608 183.759 52.682 185.453 51.219C180.756 49.756 176.598 47.523 173.133 44.597C176.213 40.901 178.6 36.512 180.371 31.353H184.221Z" fill="#F0B90B"/>
<path d="M203.163 33.894H248.978V42.595H258.757V25.424H231.576C230.421 22.806 228.804 19.495 227.341 16.877L217.716 19.11C218.64 21.035 219.718 23.268 220.642 25.424H193.846V42.595H203.163V33.894ZM235.888 55.531C233.963 59.92 231.345 63.616 228.111 66.773C223.799 65.156 219.641 63.616 215.483 62.153C216.869 60.151 218.255 57.918 219.718 55.531H235.888ZM260.22 55.531V46.907H224.415C226.032 43.75 227.495 40.67 228.727 37.59L218.486 35.588C217.1 39.13 215.252 43.0569 213.25 46.907H192.383V55.531H208.322C205.935 59.381 203.471 63 201.161 66.003L201.007 66.157C206.782 68.005 213.096 70.392 219.333 72.933C212.172 76.706 203.24 79.093 192.614 80.556C194.385 82.558 197.08 86.793 198.081 89.026C210.555 86.639 221.104 83.02 229.497 77.245C238.583 81.326 246.899 85.638 252.366 89.257L259.835 81.48C254.137 78.015 246.052 74.165 237.274 70.469C241.047 66.388 244.204 61.383 246.514 55.531H260.22Z" fill="#F0B90B"/>
</svg>
