<svg width="824" height="952" viewBox="0 0 824 952" fill="none" xmlns="http://www.w3.org/2000/svg">
<path d="M637.977 606.274V422.051L730.989 475.758V659.98L637.977 606.274Z" fill="url(#paint0_linear)"/>
<path d="M478.458 805.697V698.284L571.469 751.991V859.504L478.458 805.697Z" fill="url(#paint1_linear)"/>
<path d="M637.977 422.052L730.989 475.759L824 422.052L730.989 368.345L637.977 422.052Z" fill="url(#paint2_linear)"/>
<path d="M252.531 199.525V306.938L159.419 253.232V145.818L252.531 199.525Z" fill="url(#paint3_linear)"/>
<path d="M0 422.052L93.0113 475.759L186.023 422.052L93.0113 368.345L0 422.052Z" fill="url(#paint4_linear)"/>
<path d="M571.469 199.525V306.938L664.481 253.232V145.818L571.469 199.525Z" fill="url(#paint5_linear)"/>
<path d="M730.989 291.636V399.049L637.977 345.342V237.929L730.989 291.636Z" fill="url(#paint6_linear)"/>
<path d="M252.531 199.525V306.938L411.95 214.926V107.413L252.531 199.525Z" fill="url(#paint7_linear)"/>
<path d="M571.469 199.525V306.938L411.95 214.926V107.413L571.469 199.525Z" fill="url(#paint8_linear)"/>
<path d="M345.542 805.697V698.284L252.531 751.991V859.504L345.542 805.697Z" fill="url(#paint9_linear)"/>
<path d="M411.95 844.102L505.061 790.396L411.95 736.689L318.939 790.396L411.95 844.102Z" fill="url(#paint10_linear)"/>
<path d="M252.531 751.991L345.542 698.284L186.023 606.273L93.0113 659.979L252.531 751.991Z" fill="url(#paint11_linear)"/>
<path d="M571.469 567.869L664.481 514.163L571.469 460.456L478.458 514.163L571.469 567.869Z" fill="url(#paint12_linear)"/>
<path d="M571.469 751.991L730.989 659.979L637.977 606.273L478.458 698.284L571.469 751.991Z" fill="url(#paint13_linear)"/>
<path d="M478.458 621.575V514.162L571.469 567.869V675.282L478.458 621.575Z" fill="url(#paint14_linear)"/>
<path d="M411.95 291.636V399.049L318.939 345.342V237.929L411.95 291.636Z" fill="url(#paint15_linear)"/>
<path d="M411.95 291.636V399.049L505.061 345.342V237.929L411.95 291.636Z" fill="url(#paint16_linear)"/>
<path d="M345.542 621.575V514.162L252.531 567.869V675.282L345.542 621.575Z" fill="url(#paint17_linear)"/>
<path d="M186.023 606.274V422.051L93.0113 475.758V659.98L186.023 606.274Z" fill="url(#paint18_linear)"/>
<path d="M252.531 567.869L345.542 514.163L252.531 460.456L159.419 514.163L252.531 567.869Z" fill="url(#paint19_linear)"/>
<path d="M93.0113 291.636V399.049L186.023 345.342V237.929L93.0113 291.636Z" fill="url(#paint20_linear)"/>
<path d="M411.75 870.205C613.082 870.205 776.294 693.56 776.294 475.657C776.294 257.755 613.082 81.1095 411.75 81.1095C210.418 81.1095 47.2057 257.755 47.2057 475.657C47.2057 693.56 210.418 870.205 411.75 870.205Z" fill="url(#paint21_radial)"/>
<path d="M318.939 237.928L411.95 291.635L505.061 237.928L411.95 184.222L318.939 237.928Z" fill="url(#paint22_linear)"/>
<path d="M730.989 291.636V399.049L824 345.342V237.929L730.989 291.636Z" fill="url(#paint23_linear)"/>
<path d="M0 345.342L93.0113 399.049V291.636L0 237.929V345.342Z" fill="url(#paint24_linear)"/>
<path d="M411.95 844.103V951.516L505.061 897.81V790.397L411.95 844.103Z" fill="url(#paint25_linear)"/>
<path d="M571.469 567.869V675.282L664.481 621.575V514.162L571.469 567.869Z" fill="url(#paint26_linear)"/>
<path d="M730.989 475.758V659.98L571.469 751.991V859.504L824 713.687V422.051L730.989 475.758Z" fill="url(#paint27_linear)"/>
<path d="M318.939 897.81L411.95 951.516V844.103L318.939 790.397V897.81Z" fill="url(#paint28_linear)"/>
<path d="M159.419 621.575L252.531 675.282V567.869L159.419 514.162V621.575Z" fill="url(#paint29_linear)"/>
<path d="M0 713.687L252.531 859.504V751.991L93.0113 659.98V475.758L0 422.051V713.687Z" fill="url(#paint30_linear)"/>
<path d="M0 237.928L93.0113 291.635L186.023 237.928L93.0113 184.222L0 237.928Z" fill="url(#paint31_linear)"/>
<path d="M637.977 237.928L730.989 291.635L824 237.928L730.989 184.222L637.977 237.928Z" fill="url(#paint32_linear)"/>
<path d="M411.95 0L159.419 145.818L252.531 199.524L411.95 107.413L571.469 199.524L664.481 145.818L411.95 0Z" fill="url(#paint33_linear)"/>
<path d="M411.95 475.758V767.393L505.061 713.687V529.464L664.481 437.453V330.04L411.95 475.758Z" fill="url(#paint34_linear)"/>
<path d="M159.419 437.453L318.939 529.464V713.687L411.95 767.393V475.758L159.419 330.04V437.453Z" fill="url(#paint35_linear)"/>
<path d="M411.95 368.344L252.531 276.233L159.419 330.039L411.95 475.757L664.481 330.039L571.469 276.233L411.95 368.344Z" fill="url(#paint36_linear)"/>
<path d="M159.419 514.162L252.531 567.868L318.939 529.464L225.927 475.757L159.419 514.162Z" fill="url(#paint37_linear)"/>
<path d="M0.10011 422.051L93.2114 475.757L159.619 437.452L159.419 406.749L119.615 383.746L93.0114 398.948L66.6082 383.746L0.10011 422.051Z" fill="url(#paint38_linear)"/>
<path d="M252.531 567.869V675.282L318.939 636.978V529.465L252.531 567.869Z" fill="url(#paint39_linear)"/>
<path d="M411.95 107.413L252.531 199.525V276.234L279.034 291.636L318.939 268.633V237.929L411.95 184.223V107.413Z" fill="url(#paint40_linear)"/>
<path d="M411.95 107.413L571.469 199.525V276.234L544.866 291.636L505.061 268.633V237.929L411.95 184.223V107.413Z" fill="url(#paint41_linear)"/>
<path d="M411.95 291.636L318.939 237.929V314.639L411.95 368.345V291.636Z" fill="url(#paint42_linear)"/>
<path d="M159.419 437.453L186.023 452.755V498.761L159.419 514.163V621.576L93.0113 659.981V475.758L159.419 437.453Z" fill="url(#paint43_linear)"/>
<path d="M93.0113 659.98L252.531 751.991L318.939 713.687V682.983L279.134 660.18L252.531 675.282L159.419 621.575L93.0113 659.98Z" fill="url(#paint44_linear)"/>
<path d="M664.581 514.162L571.569 567.868L505.061 529.464L598.173 475.757L664.581 514.162Z" fill="url(#paint45_linear)"/>
<path d="M823.9 422.051L730.889 475.757L664.481 437.452L664.581 406.749L704.485 383.746L731.089 398.948L757.492 383.746L823.9 422.051Z" fill="url(#paint46_linear)"/>
<path d="M571.569 567.869V675.282L505.161 636.978L505.061 529.465L571.569 567.869Z" fill="url(#paint47_linear)"/>
<path d="M412.05 291.636L505.061 237.929L505.161 314.639L412.05 368.345V291.636Z" fill="url(#paint48_linear)"/>
<path d="M664.581 437.453L637.977 452.755V498.761L664.581 514.163V621.576L731.089 659.981V475.758L664.581 437.453Z" fill="url(#paint49_linear)"/>
<path d="M731.089 659.98L571.569 751.991L505.061 713.687V682.983L544.966 660.18L571.569 675.282L664.581 621.575L731.089 659.98Z" fill="url(#paint50_linear)"/>
<defs>
<linearGradient id="paint0_linear" x1="637.938" y1="541.013" x2="730.974" y2="541.013" gradientUnits="userSpaceOnUse">
<stop stop-color="#222222"/>
<stop offset="1" stop-color="#363636"/>
</linearGradient>
<linearGradient id="paint1_linear" x1="478.447" y1="778.891" x2="571.483" y2="778.891" gradientUnits="userSpaceOnUse">
<stop stop-color="#222222"/>
<stop offset="1" stop-color="#363636"/>
</linearGradient>
<linearGradient id="paint2_linear" x1="730.973" y1="475.788" x2="730.973" y2="368.361" gradientUnits="userSpaceOnUse">
<stop stop-color="#222222"/>
<stop offset="1" stop-color="#363636"/>
</linearGradient>
<linearGradient id="paint3_linear" x1="159.465" y1="226.401" x2="252.501" y2="226.401" gradientUnits="userSpaceOnUse">
<stop stop-color="#222222"/>
<stop offset="1" stop-color="#363636"/>
</linearGradient>
<linearGradient id="paint4_linear" x1="93.009" y1="475.788" x2="93.009" y2="368.361" gradientUnits="userSpaceOnUse">
<stop stop-color="#222222"/>
<stop offset="1" stop-color="#363636"/>
</linearGradient>
<linearGradient id="paint5_linear" x1="571.483" y1="226.401" x2="664.519" y2="226.401" gradientUnits="userSpaceOnUse">
<stop stop-color="#222222"/>
<stop offset="1" stop-color="#363636"/>
</linearGradient>
<linearGradient id="paint6_linear" x1="637.938" y1="318.482" x2="730.974" y2="318.482" gradientUnits="userSpaceOnUse">
<stop stop-color="#222222"/>
<stop offset="1" stop-color="#363636"/>
</linearGradient>
<linearGradient id="paint7_linear" x1="252.501" y1="207.216" x2="411.992" y2="207.216" gradientUnits="userSpaceOnUse">
<stop stop-color="#222222"/>
<stop offset="1" stop-color="#363636"/>
</linearGradient>
<linearGradient id="paint8_linear" x1="411.992" y1="207.216" x2="571.483" y2="207.216" gradientUnits="userSpaceOnUse">
<stop stop-color="#222222"/>
<stop offset="1" stop-color="#363636"/>
</linearGradient>
<linearGradient id="paint9_linear" x1="252.501" y1="778.891" x2="345.537" y2="778.891" gradientUnits="userSpaceOnUse">
<stop stop-color="#222222"/>
<stop offset="1" stop-color="#363636"/>
</linearGradient>
<linearGradient id="paint10_linear" x1="411.992" y1="844.116" x2="411.992" y2="736.688" gradientUnits="userSpaceOnUse">
<stop stop-color="#222222"/>
<stop offset="1" stop-color="#363636"/>
</linearGradient>
<linearGradient id="paint11_linear" x1="219.274" y1="752.034" x2="219.274" y2="606.238" gradientUnits="userSpaceOnUse">
<stop stop-color="#222222"/>
<stop offset="1" stop-color="#363636"/>
</linearGradient>
<linearGradient id="paint12_linear" x1="571.483" y1="567.869" x2="571.483" y2="460.442" gradientUnits="userSpaceOnUse">
<stop stop-color="#222222"/>
<stop offset="1" stop-color="#363636"/>
</linearGradient>
<linearGradient id="paint13_linear" x1="604.71" y1="752.034" x2="604.71" y2="606.238" gradientUnits="userSpaceOnUse">
<stop stop-color="#222222"/>
<stop offset="1" stop-color="#363636"/>
</linearGradient>
<linearGradient id="paint14_linear" x1="478.447" y1="594.727" x2="571.483" y2="594.727" gradientUnits="userSpaceOnUse">
<stop stop-color="#222222"/>
<stop offset="1" stop-color="#363636"/>
</linearGradient>
<linearGradient id="paint15_linear" x1="318.956" y1="318.482" x2="411.992" y2="318.482" gradientUnits="userSpaceOnUse">
<stop stop-color="#222222"/>
<stop offset="1" stop-color="#363636"/>
</linearGradient>
<linearGradient id="paint16_linear" x1="411.992" y1="318.482" x2="505.028" y2="318.482" gradientUnits="userSpaceOnUse">
<stop stop-color="#222222"/>
<stop offset="1" stop-color="#363636"/>
</linearGradient>
<linearGradient id="paint17_linear" x1="252.501" y1="594.727" x2="345.537" y2="594.727" gradientUnits="userSpaceOnUse">
<stop stop-color="#222222"/>
<stop offset="1" stop-color="#363636"/>
</linearGradient>
<linearGradient id="paint18_linear" x1="93.0099" y1="541.013" x2="186.046" y2="541.013" gradientUnits="userSpaceOnUse">
<stop stop-color="#222222"/>
<stop offset="1" stop-color="#363636"/>
</linearGradient>
<linearGradient id="paint19_linear" x1="252.501" y1="567.869" x2="252.501" y2="460.442" gradientUnits="userSpaceOnUse">
<stop stop-color="#222222"/>
<stop offset="1" stop-color="#363636"/>
</linearGradient>
<linearGradient id="paint20_linear" x1="93.0102" y1="318.482" x2="186.046" y2="318.482" gradientUnits="userSpaceOnUse">
<stop stop-color="#222222"/>
<stop offset="1" stop-color="#363636"/>
</linearGradient>
<radialGradient id="paint21_radial" cx="0" cy="0" r="1" gradientUnits="userSpaceOnUse" gradientTransform="translate(411.773 475.673) scale(364.567 394.564)">
<stop offset="0.1782" stop-color="#F0B70B"/>
<stop offset="1" stop-color="#F0B90B" stop-opacity="0"/>
</radialGradient>
<linearGradient id="paint22_linear" x1="411.992" y1="291.624" x2="411.992" y2="184.196" gradientUnits="userSpaceOnUse">
<stop stop-color="#222222"/>
<stop offset="1" stop-color="#363636"/>
</linearGradient>
<linearGradient id="paint23_linear" x1="730.975" y1="318.483" x2="824.011" y2="318.483" gradientUnits="userSpaceOnUse">
<stop stop-color="#222222"/>
<stop offset="1" stop-color="#363636"/>
</linearGradient>
<linearGradient id="paint24_linear" x1="-0.0257031" y1="318.481" x2="93.0106" y2="318.481" gradientUnits="userSpaceOnUse">
<stop stop-color="#222222"/>
<stop offset="1" stop-color="#363636"/>
</linearGradient>
<linearGradient id="paint25_linear" x1="411.991" y1="870.973" x2="505.03" y2="870.973" gradientUnits="userSpaceOnUse">
<stop stop-color="#222222"/>
<stop offset="1" stop-color="#363636"/>
</linearGradient>
<linearGradient id="paint26_linear" x1="571.481" y1="594.726" x2="664.521" y2="594.726" gradientUnits="userSpaceOnUse">
<stop stop-color="#222222"/>
<stop offset="1" stop-color="#363636"/>
</linearGradient>
<linearGradient id="paint27_linear" x1="571.481" y1="640.769" x2="824.011" y2="640.769" gradientUnits="userSpaceOnUse">
<stop stop-color="#222222"/>
<stop offset="1" stop-color="#363636"/>
</linearGradient>
<linearGradient id="paint28_linear" x1="318.956" y1="870.973" x2="411.992" y2="870.973" gradientUnits="userSpaceOnUse">
<stop stop-color="#222222"/>
<stop offset="1" stop-color="#363636"/>
</linearGradient>
<linearGradient id="paint29_linear" x1="159.465" y1="594.726" x2="252.501" y2="594.726" gradientUnits="userSpaceOnUse">
<stop stop-color="#222222"/>
<stop offset="1" stop-color="#363636"/>
</linearGradient>
<linearGradient id="paint30_linear" x1="-0.0257031" y1="640.77" x2="252.501" y2="640.77" gradientUnits="userSpaceOnUse">
<stop stop-color="#222222"/>
<stop offset="1" stop-color="#363636"/>
</linearGradient>
<linearGradient id="paint31_linear" x1="93.0093" y1="291.624" x2="93.0093" y2="184.196" gradientUnits="userSpaceOnUse">
<stop stop-color="#222222"/>
<stop offset="1" stop-color="#363636"/>
</linearGradient>
<linearGradient id="paint32_linear" x1="730.974" y1="291.624" x2="730.974" y2="184.196" gradientUnits="userSpaceOnUse">
<stop stop-color="#222222"/>
<stop offset="1" stop-color="#363636"/>
</linearGradient>
<linearGradient id="paint33_linear" x1="411.992" y1="199.541" x2="411.992" y2="0.0322977" gradientUnits="userSpaceOnUse">
<stop stop-color="#222222"/>
<stop offset="1" stop-color="#363636"/>
</linearGradient>
<linearGradient id="paint34_linear" x1="411.991" y1="548.686" x2="664.521" y2="548.686" gradientUnits="userSpaceOnUse">
<stop stop-color="#222222"/>
<stop offset="1" stop-color="#363636"/>
</linearGradient>
<linearGradient id="paint35_linear" x1="159.465" y1="548.686" x2="411.992" y2="548.686" gradientUnits="userSpaceOnUse">
<stop stop-color="#222222"/>
<stop offset="1" stop-color="#363636"/>
</linearGradient>
<linearGradient id="paint36_linear" x1="411.992" y1="475.789" x2="411.992" y2="276.277" gradientUnits="userSpaceOnUse">
<stop stop-color="#222222"/>
<stop offset="1" stop-color="#363636"/>
</linearGradient>
<linearGradient id="paint37_linear" x1="222.597" y1="550.605" x2="255.825" y2="493.054" gradientUnits="userSpaceOnUse">
<stop stop-color="#222222" stop-opacity="0.8"/>
<stop offset="1" stop-color="#363636" stop-opacity="0"/>
</linearGradient>
<linearGradient id="paint38_linear" x1="0.138414" y1="429.748" x2="159.629" y2="429.748" gradientUnits="userSpaceOnUse">
<stop stop-color="#222222" stop-opacity="0.8"/>
<stop offset="1" stop-color="#363636" stop-opacity="0"/>
</linearGradient>
<linearGradient id="paint39_linear" x1="252.551" y1="602.467" x2="319.004" y2="602.466" gradientUnits="userSpaceOnUse">
<stop stop-color="#222222" stop-opacity="0.8"/>
<stop offset="1" stop-color="#363636" stop-opacity="0"/>
</linearGradient>
<linearGradient id="paint40_linear" x1="315.762" y1="163.178" x2="362.279" y2="243.75" gradientUnits="userSpaceOnUse">
<stop stop-color="#222222" stop-opacity="0.8"/>
<stop offset="1" stop-color="#363636" stop-opacity="0"/>
</linearGradient>
<linearGradient id="paint41_linear" x1="508.193" y1="163.163" x2="461.676" y2="243.735" gradientUnits="userSpaceOnUse">
<stop stop-color="#222222" stop-opacity="0.8"/>
<stop offset="1" stop-color="#363636" stop-opacity="0"/>
</linearGradient>
<linearGradient id="paint42_linear" x1="382.086" y1="274.359" x2="348.859" y2="331.91" gradientUnits="userSpaceOnUse">
<stop stop-color="#222222" stop-opacity="0.8"/>
<stop offset="1" stop-color="#363636" stop-opacity="0"/>
</linearGradient>
<linearGradient id="paint43_linear" x1="93.0546" y1="548.754" x2="186.096" y2="548.753" gradientUnits="userSpaceOnUse">
<stop stop-color="#222222" stop-opacity="0.8"/>
<stop offset="1" stop-color="#363636" stop-opacity="0"/>
</linearGradient>
<linearGradient id="paint44_linear" x1="189.368" y1="715.586" x2="235.887" y2="635.012" gradientUnits="userSpaceOnUse">
<stop stop-color="#222222" stop-opacity="0.8"/>
<stop offset="1" stop-color="#363636" stop-opacity="0"/>
</linearGradient>
<linearGradient id="paint45_linear" x1="601.469" y1="550.605" x2="568.242" y2="493.054" gradientUnits="userSpaceOnUse">
<stop stop-color="#222222" stop-opacity="0.8"/>
<stop offset="1" stop-color="#363636" stop-opacity="0"/>
</linearGradient>
<linearGradient id="paint46_linear" x1="823.928" y1="429.748" x2="664.437" y2="429.748" gradientUnits="userSpaceOnUse">
<stop stop-color="#222222" stop-opacity="0.8"/>
<stop offset="1" stop-color="#363636" stop-opacity="0"/>
</linearGradient>
<linearGradient id="paint47_linear" x1="571.493" y1="602.48" x2="505.04" y2="602.479" gradientUnits="userSpaceOnUse">
<stop stop-color="#222222" stop-opacity="0.8"/>
<stop offset="1" stop-color="#363636" stop-opacity="0"/>
</linearGradient>
<linearGradient id="paint48_linear" x1="441.98" y1="274.359" x2="475.208" y2="331.91" gradientUnits="userSpaceOnUse">
<stop stop-color="#222222" stop-opacity="0.8"/>
<stop offset="1" stop-color="#363636" stop-opacity="0"/>
</linearGradient>
<linearGradient id="paint49_linear" x1="730.989" y1="548.767" x2="637.948" y2="548.766" gradientUnits="userSpaceOnUse">
<stop stop-color="#222222" stop-opacity="0.8"/>
<stop offset="1" stop-color="#363636" stop-opacity="0"/>
</linearGradient>
<linearGradient id="paint50_linear" x1="634.699" y1="715.586" x2="588.18" y2="635.012" gradientUnits="userSpaceOnUse">
<stop stop-color="#222222" stop-opacity="0.8"/>
<stop offset="1" stop-color="#363636" stop-opacity="0"/>
</linearGradient>
</defs>
</svg>
