<svg width="475" height="126" viewBox="0 0 475 126" fill="none" xmlns="http://www.w3.org/2000/svg">
<path d="M226.6 63H216V14.2H225.9L248.8 44.3V14.2H259.4V63H250.3L226.7 32V63H226.6ZM278 63H267.1L288 13.8H297.9L318.8 63H307.6L303.1 52.1H282.5L278 63ZM286.3 42.6H299.3L292.8 26.8L286.3 42.6ZM201.6 14.2H190.9V63H201.6V14.2ZM160.8 63H137.6V14.2H160.3C170.3 14.2 176.4 19.2 176.4 26.8V26.9C176.4 32.4 173.5 35.5 170 37.4C175.6 39.6 179.1 42.8 179.1 49.4V49.5C179.1 58.6 171.8 63 160.8 63ZM148.1 34H158C162.7 34 165.7 32.5 165.7 28.8V28.7C165.7 25.5 163.2 23.7 158.7 23.7H148.1V34ZM148.1 53.6H160.9C165.6 53.6 168.5 51.9 168.5 48.3V48.2C168.5 44.9 166.1 42.9 160.6 42.9H148.2V53.6H148.1ZM414.3 97.1H431.6V91.7H414.3V82.7H433.8V77.3H408.2V111.9H434.1V106.5H414.3V97.1ZM471.3 53.5H444.8V43.2H467.8V33.6H444.8V23.7H470.9V14.1H434.1V63H471.3V53.5ZM461.7 94.1L473.7 77.2H466.7L458.1 89.6L449.5 77.2H442.3L454.4 94.2L441.8 111.8H448.8L457.9 98.7L467 111.8H474.2L461.7 94.1ZM425.4 55.2L418.6 48.3C414.8 51.8 411.3 54 405.8 54C397.4 54 391.6 47 391.6 38.7V38.6C391.6 30.2 397.5 23.4 405.8 23.4C410.7 23.4 414.5 25.5 418.3 28.9L425.1 21C420.6 16.5 415.1 13.5 405.9 13.5C390.9 13.5 380.4 24.9 380.4 38.7V38.8C380.4 52.8 391.1 63.9 405.4 63.9C414.8 63.9 420.4 60.5 425.4 55.2ZM137.6 97.5H354V91.7H137.6V97.5ZM370 14.2H359.4V44.3L336.5 14.2H326.6V63H337.2V32L360.8 63H369.9V14.2H370ZM400.2 94.5C400.2 104.3 392.7 111.8 381.8 111.8H368.9V77.2H381.8C392.7 77.3 400.2 84.7 400.2 94.5ZM393.8 94.6C393.8 87.8 389.1 82.8 381.8 82.8H375V106.3H381.8C389.1 106.3 393.8 101.4 393.8 94.6ZM33.3999 26.4L54.5 14.2L75.5999 26.4L87.8999 19.3L54.3999 0L20.8999 19.3L33.3999 26.4ZM88 43.7L75.7 36.6L54.5999 48.8L33.5 36.6L21.2 43.7V57.9L42.2998 70.1V94.5L54.5999 101.6L66.8999 94.5V70.1L88 57.9V43.7ZM88 82.3V68.1L75.7 75.2V89.4L88 82.3ZM96.7998 87.4L75.7 99.6V113.8L109.2 94.5V55.9L96.8999 63V87.4H96.7998ZM84.5 31.5L96.7998 38.6V52.8L109.1 45.7V31.5L96.7998 24.4L84.5 31.5ZM42.2 104.7V118.9L54.5 126L66.7998 118.9V104.7L54.5 111.8L42.2 104.7ZM21.0999 82.3L33.3999 89.4V75.2L21.0999 68.1V82.3ZM42.2 31.5L54.5 38.6L66.7998 31.5L54.5 24.4L42.2 31.5ZM12.2998 38.6L24.5999 31.5L12.2998 24.4L0 31.5V45.7L12.2998 52.8V38.6ZM12.2998 63L0 55.9V94.5L33.5 113.8V99.6L12.3999 87.4V63H12.2998Z" fill="#F0B90B"/>
</svg>
