<svg width="701" height="103" viewBox="0 0 701 103" fill="none" xmlns="http://www.w3.org/2000/svg">
<path d="M167.148 63.9182V63.7182C167.148 56.216 163.147 52.4149 156.645 49.9142C160.646 47.7136 164.047 44.1126 164.047 37.8108V37.6107C164.047 28.8082 156.945 23.1066 145.542 23.1066H119.434V79.2226H146.142C158.745 79.3226 167.148 74.1211 167.148 63.9182ZM151.743 39.9114C151.743 44.1126 148.342 45.8131 142.841 45.8131H131.438V33.9097H143.641C148.843 33.9097 151.743 36.0103 151.743 39.7113V39.9114ZM154.844 62.4178C154.844 66.619 151.543 68.5195 146.142 68.5195H131.438V56.116H145.742C152.043 56.116 154.844 58.4167 154.844 62.2177V62.4178ZM193.055 79.3226V23.2066H180.652V79.3226H193.055ZM259.474 79.3226V23.2066H247.27V57.8165L220.963 23.2066H209.56V79.3226H221.763V43.6124L248.971 79.3226H259.474ZM327.894 79.3226L303.787 22.8065H292.383L268.276 79.3226H280.88L285.982 66.719H309.688L314.79 79.3226H327.894ZM305.387 55.8159H290.483L297.985 37.6107L305.387 55.8159ZM386.71 79.3226V23.2066H374.507V57.8165L348.199 23.2066H336.796V79.3226H349V43.6124L376.207 79.3226H386.71ZM450.529 70.22L442.626 62.3178C438.225 66.3189 434.324 68.9197 427.822 68.9197C418.219 68.9197 411.518 60.9174 411.518 51.3146V51.1146C411.518 41.5118 418.319 33.6096 427.822 33.6096C433.424 33.6096 437.825 36.0103 442.226 39.9114L450.128 30.8088C444.927 25.7073 438.625 22.1063 428.022 22.1063C410.817 22.1063 398.714 35.21 398.714 51.1146V51.3146C398.714 67.4192 411.017 80.2229 427.522 80.2229C438.325 80.2229 444.727 76.4218 450.529 70.22ZM503.244 79.3226V68.3195H472.735V56.5161H499.243V45.513H472.735V34.1097H502.843V23.1066H460.532V79.2226H503.244V79.3226ZM559.06 79.3226H538.154V23.1066H559.06C576.765 23.1066 588.968 35.21 588.968 51.1146C588.968 67.0191 576.665 79.3226 559.06 79.3226ZM559.06 32.1092H547.956V70.3201H559.06C570.863 70.3201 578.565 62.4178 578.565 51.3146C578.565 40.2115 570.863 32.1092 559.06 32.1092ZM641.183 31.9091H609.374V46.5133H637.582V55.3158H609.374V70.5201H641.583V79.3226H599.571V23.1066H641.183V31.9091ZM689.397 79.3226L674.593 58.0165L659.788 79.3226H648.485L668.991 50.7145L649.285 23.1066H660.888L674.892 43.2123L688.896 23.1066H700.2L680.594 50.5144L701 79.2226H689.397V79.3226ZM17.105 15.7045L44.3127 0L71.5204 15.7045L61.5175 21.5061L44.3127 11.6033L27.1078 21.5061L17.105 15.7045ZM71.5204 35.5101L61.5175 29.7085L44.3127 39.6113L27.1078 29.7085L17.105 35.5101V47.1134L34.3098 57.0163V76.8219L44.3127 82.6236L54.3155 76.8219V57.0163L71.5204 47.1134V35.5101ZM71.5204 66.9191V55.3158L61.5175 61.1174V72.7207L71.5204 66.9191ZM78.6225 71.0203L61.4177 80.9231V92.5264L88.6254 76.8219V45.4129L78.6225 51.2146V71.0203ZM68.6197 25.6073L78.6225 31.409V43.0123L88.6254 37.2106V25.6073L78.6225 19.8057L68.6197 25.6073ZM34.3098 85.1243V96.7276L44.3127 102.529L54.3155 96.7276V85.1243L44.3127 90.9259L34.3098 85.1243ZM17.105 66.9191L27.1078 72.7207V61.1174L17.105 55.3158V66.9191ZM34.3098 25.6073L44.3127 31.409L54.3155 25.6073L44.3127 19.8057L34.3098 25.6073ZM10.0029 31.409L20.0057 25.6073L10.0029 19.8057L0 25.6073V37.2106L10.0029 43.0123V31.409ZM10.0029 51.2146L0 45.4129V76.8219L27.2077 92.5264V80.9231L10.0029 71.0203V51.2146Z" fill="#F0B90B"/>
</svg>
