<svg width="384" height="270" viewBox="0 0 384 270" fill="none" xmlns="http://www.w3.org/2000/svg">
<path d="M131.8 262.901L127.3 258.401C123.9 261.601 120.8 263.601 115.9 263.601C108.3 263.601 102.8 257.201 102.8 249.401C102.8 241.601 108.3 235.301 115.9 235.301C120.4 235.301 123.9 237.301 127 240.201L131.5 235.001C127.7 231.401 123.3 228.801 115.9 228.801C103.9 228.801 95.3999 238.101 95.3999 249.401C95.3999 260.901 104 269.901 115.6 269.901C123.1 269.901 127.7 267.201 131.8 262.901ZM166.7 252.501V269.301H173.7V229.501H166.7V246.001H147.7V229.501H140.7V269.301H147.7V252.501H166.7ZM206 229.201H199.5L182 269.301H189.2L193.3 259.701H212.1L216.1 269.301H223.5L206 229.201ZM209.6 253.401H195.9L202.7 237.501L209.6 253.401ZM232.1 229.501V269.301H239.1V229.501H232.1ZM279.5 257.001L258.2 229.501H251.7V269.301H258.6V241.001L280.5 269.301H286.4V229.501H279.5V257.001Z" fill="#F0B90B"/>
<path d="M26.7 213.673H0V157.473H26.1C37.6 157.473 44.6 163.173 44.6 171.973V172.173C44.6 178.473 41.2 182.073 37.2 184.273C43.7 186.773 47.7 190.573 47.7 198.073V198.273C47.7 208.573 39.4 213.673 26.7 213.673ZM32.3 174.173C32.3 170.473 29.4 168.373 24.2 168.373H12V180.273H23.4C28.9 180.273 32.3 178.473 32.3 174.373V174.173ZM35.5 196.573C35.5 192.773 32.7 190.473 26.4 190.473H12V202.873H26.7C32.2 202.873 35.4 200.973 35.4 196.773V196.573H35.5ZM61.3 213.673V157.473H73.7V213.673H61.3ZM129.6 213.673L102.4 177.973V213.673H90.2V157.473H101.6L127.9 192.073V157.473H140.1V213.673H129.6ZM195.6 213.673L190.5 201.073H166.7L161.6 213.673H149L173.1 157.073H184.5L208.6 213.673H195.6ZM178.6 171.973L171.1 190.173H186L178.6 171.973ZM257 213.673L229.8 177.973V213.673H217.6V157.473H229L255.3 192.073V157.473H267.5V213.673H257ZM308.2 214.673C291.7 214.673 279.4 201.873 279.4 185.773V185.573C279.4 169.573 291.4 156.473 308.7 156.473C319.3 156.473 325.6 159.973 330.8 165.173L322.9 174.273C318.6 170.373 314.2 167.973 308.5 167.973C299 167.973 292.2 175.873 292.2 185.473V185.673C292.2 195.273 298.9 203.373 308.5 203.373C314.9 203.373 318.9 200.773 323.3 196.773L331.2 204.673C325.5 210.773 319.1 214.673 308.2 214.673ZM341.2 213.673V157.473H383.6V168.473H353.5V179.873H380V190.873H353.5V202.673H384V213.673H341.2ZM170.5 27.3727L158 20.1727L192 0.472656L226.1 20.1727L213.6 27.3727L192 14.9727L170.5 27.3727ZM235 39.7727V54.2727L247.5 47.0727V32.5727L235 25.2727L222.5 32.4727L235 39.7727ZM179.5 32.5727L192 39.7727L204.5 32.5727L192 25.2727L179.5 32.5727ZM226.1 44.9727L213.6 37.7727L192 50.1727L170.5 37.7727L158 44.9727V59.4727L179.5 71.8727V96.6727L192 103.873L204.5 96.6727V71.8727L226.1 59.4727V44.9727ZM235 89.4727L213.5 101.873V116.373L247.6 96.6727V57.3727L235 64.6727V89.4727ZM213.5 91.5727L226 84.3727V69.7727L213.5 76.9727V91.5727ZM179.5 107.073V121.573L192 128.773L204.5 121.573V107.073L192 114.273L179.5 107.073ZM136.4 47.0727L148.9 54.2727V39.7727L161.4 32.5727L149 25.2727L136.5 32.4727V47.0727H136.4ZM149 64.6727L136.5 57.4727V96.7727L170.6 116.473V101.973L149 89.4727V64.6727ZM170.5 77.0727L158 69.8727V84.3727L170.5 91.5727V77.0727Z" fill="#F0B90B"/>
</svg>
