<svg width="789" height="103" viewBox="0 0 789 103" fill="none" xmlns="http://www.w3.org/2000/svg">
<path d="M564.1 80.5277C547.7 80.5277 535.5 67.7277 535.5 51.5277C535.5 35.5277 547.5 22.4277 564.5 22.4277C574.9 22.4277 581.1 26.0277 586.5 31.1277L580.2 38.4277C575.7 34.2277 570.9 31.4277 564.5 31.4277C553.7 31.4277 546 40.2277 546 51.3277C546 62.4277 553.8 71.4277 564.5 71.4277C571.4 71.4277 575.8 68.6277 580.6 64.1277L586.9 70.5277C581.1 76.6277 574.7 80.5277 564.1 80.5277ZM605.4 55.8277V79.5277H595.5V23.3277H605.4V46.7277H632.2V23.3277H642.1V79.5277H632.2V55.8277H605.4ZM708.5 79.5277H698.1L692.3 65.9277H665.7L659.9 79.5277H649.8L674.5 22.9277H683.6L708.5 79.5277ZM679 34.7277L669.4 57.2277H688.7L679 34.7277ZM726.4 23.3277V79.5277H716.5V23.3277H726.4ZM779.4 23.3277H789.1V79.5277H780.8L749.8 39.5277V79.5277H740.1V23.3277H749.2L779.3 62.1277V23.3277H779.4Z" fill="#F0B90B"/>
<path d="M167.15 63.65V63.45C167.15 55.95 163.15 52.15 156.65 49.65C160.65 47.45 164.05 43.85 164.05 37.55V37.35C164.05 28.55 156.95 22.85 145.55 22.85H119.45V78.95H146.15C158.75 79.05 167.15 73.85 167.15 63.65ZM151.75 39.65C151.75 43.85 148.35 45.55 142.85 45.55H131.45V33.65H143.65C148.85 33.65 151.75 35.75 151.75 39.45V39.65ZM154.85 62.15C154.85 66.35 151.55 68.25 146.15 68.25H131.45V55.85H145.75C152.05 55.85 154.85 58.15 154.85 61.95V62.15ZM193.05 79.05V22.95H180.65V79.05H193.05ZM259.45 79.05V22.95H247.25V57.55L220.95 22.95H209.55V79.05H221.75V43.35L248.95 79.05H259.45ZM327.85 79.05L303.75 22.55H292.35L268.25 79.05H280.85L285.95 66.45H309.65L314.75 79.05H327.85ZM305.35 55.55H290.45L297.95 37.35L305.35 55.55ZM386.65 79.05V22.95H374.45V57.55L348.15 22.95H336.75V79.05H348.95V43.35L376.15 79.05H386.65ZM450.45 69.95L442.55 62.05C438.15 66.05 434.25 68.65 427.75 68.65C418.15 68.65 411.45 60.65 411.45 51.05V50.85C411.45 41.25 418.25 33.35 427.75 33.35C433.35 33.35 437.75 35.75 442.15 39.65L450.05 30.55C444.85 25.45 438.55 21.85 427.95 21.85C410.75 21.85 398.65 34.95 398.65 50.85V51.05C398.65 67.15 410.95 79.95 427.45 79.95C438.25 79.95 444.65 76.15 450.45 69.95ZM503.15 79.05V68.05H472.65V56.25H499.15V45.25H472.65V33.85H502.75V22.85H460.45V78.95H503.15V79.05ZM17.1499 15.45L44.3499 -0.25L71.5498 15.45L61.5498 21.25L44.3499 11.35L27.1499 21.25L17.1499 15.45ZM71.5498 35.25L61.5498 29.45L44.3499 39.35L27.1499 29.45L17.1499 35.25V46.85L34.3499 56.75V76.55L44.3499 82.35L54.3499 76.55V56.75L71.5498 46.85V35.25ZM71.5498 66.65V55.05L61.5498 60.85V72.45L71.5498 66.65ZM78.6499 70.75L61.45 80.65V92.25L88.6499 76.55V45.15L78.6499 50.95V70.75ZM68.6499 25.35L78.6499 31.15V42.75L88.6499 36.95V25.35L78.6499 19.55L68.6499 25.35ZM34.3499 84.85V96.45L44.3499 102.25L54.3499 96.45V84.85L44.3499 90.65L34.3499 84.85ZM17.1499 66.65L27.1499 72.45V60.85L17.1499 55.05V66.65ZM34.3499 25.35L44.3499 31.15L54.3499 25.35L44.3499 19.55L34.3499 25.35ZM10.0498 31.15L20.0498 25.35L10.0498 19.55L0.0498047 25.35V36.95L10.0498 42.75V31.15ZM10.0498 50.95L0.0498047 45.15V76.55L27.2498 92.25V80.65L10.0498 70.75V50.95Z" fill="#F0B90B"/>
</svg>
