<svg width="474" height="126" viewBox="0 0 474 126" fill="none" xmlns="http://www.w3.org/2000/svg">
<path d="M162.429 63H139.229V14.2H161.929C171.929 14.2 178.03 19.2 178.03 26.8V26.9C178.03 32.4 175.129 35.5 171.629 37.4C177.229 39.6 180.729 42.8 180.729 49.4V49.5C180.729 58.6 173.529 63 162.429 63ZM167.33 28.6C167.33 25.4 164.83 23.6 160.33 23.6H149.729V33.9H159.629C164.329 33.9 167.33 32.4 167.33 28.7V28.6ZM170.03 48.2C170.03 44.9 167.629 42.9 162.129 42.9H149.729V53.6H162.53C167.23 53.6 170.129 51.9 170.129 48.3V48.2H170.03ZM192.53 63V14.2H203.229V63H192.53ZM251.83 63L228.229 32V63H217.629V14.2H227.53L250.429 44.3V14.2H261.03V63H251.83ZM309.229 63L304.729 52.1H284.129L279.629 63H268.729L289.629 13.8H299.53L320.429 63H309.229ZM294.429 26.8L287.929 42.6H300.929L294.429 26.8ZM362.53 63L338.929 32V63H328.33V14.2H338.229L361.129 44.3V14.2H371.729V63H362.53ZM407.03 63.9C392.63 63.9 382.03 52.8 382.03 38.8V38.7C382.03 24.8 392.53 13.5 407.53 13.5C416.73 13.5 422.229 16.6 426.729 21L419.929 28.9C416.129 25.5 412.329 23.4 407.429 23.4C399.229 23.4 393.229 30.2 393.229 38.6V38.7C393.229 47.1 399.029 54 407.429 54C413.029 54 416.43 51.8 420.229 48.3L427.03 55.2C422.03 60.5 416.53 63.9 407.03 63.9ZM435.729 63V14.2H472.53V23.8H446.429V33.7H469.429V43.3H446.429V53.6H472.929V63.2H435.729V63Z" fill="#F0B90B"/>
<path d="M143.248 87.1842C143.248 84.9282 145.264 83.1522 148.72 83.1522C151.792 83.1522 154.816 84.3522 157.84 86.6082L161.008 82.1442C157.6 79.4082 153.712 77.9202 148.816 77.9202C142.144 77.9202 137.344 81.8562 137.344 87.7122C137.344 93.9522 141.376 96.0642 148.528 97.7922C154.768 99.2322 156.112 100.528 156.112 102.976C156.112 105.568 153.808 107.248 150.16 107.248C145.984 107.248 142.768 105.664 139.552 102.88L136 107.104C140.032 110.704 144.88 112.48 150.016 112.48C157.072 112.48 162.016 108.736 162.016 102.4C162.016 96.7842 158.32 94.2402 151.216 92.5122C144.784 90.9762 143.248 89.8242 143.248 87.1842Z" fill="#F0B90B"/>
<path d="M195.119 87.9042V112H201.023V78.4002H194.735L184.511 94.2882L174.287 78.4002H167.999V112H173.807V88.0002L184.319 103.744H184.511L195.119 87.9042Z" fill="#F0B90B"/>
<path d="M226.087 78.1602H220.615L205.831 112H211.879L215.335 103.888H231.223L234.631 112H240.871L226.087 78.1602ZM229.063 98.6562H217.495L223.255 85.2162L229.063 98.6562Z" fill="#F0B90B"/>
<path d="M274.185 112L265.113 99.2802C269.817 97.9842 273.129 94.6242 273.129 89.0562C273.129 82.4802 268.377 78.4002 260.649 78.4002H245.673V112H251.577V100.288H258.969L267.225 112H274.185ZM267.129 89.3922C267.129 92.8482 264.441 95.0562 260.217 95.0562H251.577V83.7762H260.169C264.537 83.7762 267.129 85.6962 267.129 89.3922Z" fill="#F0B90B"/>
<path d="M293.468 83.8722H304.124V78.4002H276.86V83.8722H287.516V112H293.468V83.8722Z" fill="#F0B90B"/>
<path d="M352.087 106.624L348.295 102.784C345.415 105.472 342.775 107.152 338.647 107.152C332.215 107.152 327.559 101.776 327.559 95.1522C327.559 88.5282 332.215 83.2482 338.647 83.2482C342.487 83.2482 345.367 84.9282 348.055 87.4242L351.847 83.0562C348.631 79.9842 344.887 77.8242 338.695 77.8242C328.519 77.8242 321.367 85.6482 321.367 95.2482C321.367 104.944 328.663 112.576 338.455 112.576C344.743 112.576 348.583 110.272 352.087 106.624Z" fill="#F0B90B"/>
<path d="M379.269 97.8402V112H385.173V78.4002H379.269V92.3682H363.237V78.4002H357.333V112H363.237V97.8402H379.269Z" fill="#F0B90B"/>
<path d="M410.218 78.1602H404.746L389.962 112H396.01L399.466 103.888H415.354L418.762 112H425.002L410.218 78.1602ZM413.194 98.6562H401.626L407.386 85.2162L413.194 98.6562Z" fill="#F0B90B"/>
<path d="M430.139 78.4002V112H436.043V78.4002H430.139Z" fill="#F0B90B"/>
<path d="M467.55 101.632L449.55 78.4002H444.078V112H449.886V88.0962L468.414 112H473.358V78.4002H467.55V101.632Z" fill="#F0B90B"/>
<path d="M54.5498 14.2L33.4497 26.4L20.9497 19.3L54.4497 0L87.9497 19.3L75.6497 26.4L54.5498 14.2Z" fill="#F0B90B"/>
<path d="M75.7498 36.6L88.0498 43.7V57.9L66.9497 70.1V94.5L54.6497 101.6L42.3496 94.5V70.1L21.2498 57.9V43.7L33.5498 36.6L54.6497 48.8L75.7498 36.6Z" fill="#F0B90B"/>
<path d="M88.0498 68.1V82.3L75.7498 89.4V75.2L88.0498 68.1Z" fill="#F0B90B"/>
<path d="M75.7498 99.6L96.8496 87.4H96.9497V63L109.25 55.9V94.5L75.7498 113.8V99.6Z" fill="#F0B90B"/>
<path d="M96.8496 38.6L84.5498 31.5L96.8496 24.4L109.15 31.5V45.7L96.8496 52.8V38.6Z" fill="#F0B90B"/>
<path d="M42.2498 118.9V104.7L54.5498 111.8L66.8496 104.7V118.9L54.5498 126L42.2498 118.9Z" fill="#F0B90B"/>
<path d="M33.4497 89.4L21.1497 82.3V68.1L33.4497 75.2V89.4Z" fill="#F0B90B"/>
<path d="M54.5498 38.6L42.2498 31.5L54.5498 24.4L66.8496 31.5L54.5498 38.6Z" fill="#F0B90B"/>
<path d="M24.6497 31.5L12.3496 38.6V52.8L0.0498047 45.7V31.5L12.3496 24.4L24.6497 31.5Z" fill="#F0B90B"/>
<path d="M0.0498047 55.9L12.3496 63H12.4497V87.4L33.5498 99.6V113.8L0.0498047 94.5V55.9Z" fill="#F0B90B"/>
</svg>
