<svg width="387" height="269" viewBox="0 0 387 269" fill="none" xmlns="http://www.w3.org/2000/svg">
<path d="M8.08002 240.559C8.08002 238.044 10.3274 236.064 14.1802 236.064C17.6048 236.064 20.976 237.402 24.3471 239.917L27.8788 234.94C24.0795 231.89 19.7452 230.231 14.2872 230.231C6.84929 230.231 1.49828 234.619 1.49828 241.147C1.49828 248.104 5.99313 250.458 13.9661 252.385C20.9224 253.99 22.4207 255.435 22.4207 258.164C22.4207 261.053 19.8522 262.926 15.7855 262.926C11.1301 262.926 7.54492 261.16 3.95975 258.057L0 262.765C4.49485 266.779 9.89936 268.759 15.6249 268.759C23.4909 268.759 29.0025 264.585 29.0025 257.522C29.0025 251.261 24.8822 248.425 16.9627 246.498C9.79234 244.786 8.08002 243.502 8.08002 240.559Z" fill="#F0B90B"/>
<path d="M66.9758 241.361V268.224H73.5575V230.766H66.5477L55.1501 248.478L43.7524 230.766H36.7426V268.224H43.2173V241.468L54.936 259.02H55.1501L66.9758 241.361Z" fill="#F0B90B"/>
<path d="M102.569 230.499H96.4686L79.9875 268.224H86.7298L90.5825 259.18H108.294L112.094 268.224H119.05L102.569 230.499ZM105.886 253.348H92.9905L99.4117 238.365L105.886 253.348Z" fill="#F0B90B"/>
<path d="M157.258 268.224L147.145 254.043C152.389 252.599 156.081 248.853 156.081 242.646C156.081 235.315 150.783 230.766 142.168 230.766H125.473V268.224H132.055V255.167H140.295L149.499 268.224H157.258ZM149.392 243.02C149.392 246.873 146.396 249.334 141.687 249.334H132.055V236.76H141.633C146.503 236.76 149.392 238.9 149.392 243.02Z" fill="#F0B90B"/>
<path d="M179.825 236.867H191.704V230.766H161.31V236.867H173.19V268.224H179.825V236.867Z" fill="#F0B90B"/>
<path d="M247.314 262.23L243.087 257.95C239.876 260.946 236.933 262.819 232.331 262.819C225.161 262.819 219.97 256.826 219.97 249.441C219.97 242.057 225.161 236.171 232.331 236.171C236.612 236.171 239.823 238.044 242.819 240.826L247.046 235.957C243.461 232.532 239.287 230.124 232.385 230.124C221.041 230.124 213.068 238.846 213.068 249.549C213.068 260.358 221.201 268.866 232.117 268.866C239.127 268.866 243.408 266.297 247.314 262.23Z" fill="#F0B90B"/>
<path d="M278.686 252.438V268.224H285.268V230.766H278.686V246.338H260.814V230.766H254.232V268.224H260.814V252.438H278.686Z" fill="#F0B90B"/>
<path d="M314.258 230.499H308.157L291.676 268.224H298.419L302.271 259.18H319.983L323.782 268.224H330.739L314.258 230.499ZM317.575 253.348H304.679L311.1 238.365L317.575 253.348Z" fill="#F0B90B"/>
<path d="M337.537 230.766V268.224H344.118V230.766H337.537Z" fill="#F0B90B"/>
<path d="M380.312 256.665L360.245 230.766H354.145V268.224H360.62V241.576L381.275 268.224H386.786V230.766H380.312V256.665Z" fill="#F0B90B"/>
<path d="M27.7369 213.484H1.00133V157.209H27.1361C38.6514 157.209 45.6607 162.917 45.6607 171.728V171.929C45.6607 178.237 42.2562 181.842 38.2509 184.045C44.7595 186.548 48.7648 190.353 48.7648 197.863V198.063C48.7648 208.377 40.4538 213.484 27.7369 213.484ZM33.3443 173.931C33.3443 170.226 30.4405 168.124 25.2336 168.124H13.0173V180.039H24.4325C29.9398 180.039 33.3443 178.237 33.3443 174.132V173.931ZM36.5486 196.361C36.5486 192.556 33.7449 190.253 27.4365 190.253H13.0173V202.669H27.7369C33.2442 202.669 36.4485 200.767 36.4485 196.561V196.361H36.5486ZM62.3829 213.484V157.209H74.7995V213.484H62.3829ZM130.774 213.484L103.538 177.736V213.484H91.3214V157.209H102.737L129.072 191.855V157.209H141.288V213.484H130.774ZM196.862 213.484L191.755 200.867H167.923L162.817 213.484H150.2L174.332 156.809H185.747L209.879 213.484H196.862ZM179.839 171.728L172.329 189.953H187.249L179.839 171.728ZM258.344 213.484L231.107 177.736V213.484H218.891V157.209H230.306L256.641 191.855V157.209H268.857V213.484H258.344ZM309.612 214.485C293.09 214.485 280.773 201.668 280.773 185.547V185.346C280.773 169.325 292.789 156.208 310.112 156.208C320.726 156.208 327.035 159.712 332.242 164.919L324.331 174.031C320.026 170.126 315.62 167.723 309.912 167.723C300.399 167.723 293.59 175.634 293.59 185.246V185.447C293.59 195.059 300.299 203.17 309.912 203.17C316.321 203.17 320.326 200.567 324.732 196.561L332.642 204.472C326.935 210.58 320.526 214.485 309.612 214.485ZM342.656 213.484V157.209H385.112V168.224H354.972V179.639H381.507V190.654H354.972V202.469H385.513V213.484H342.656ZM171.728 26.9358L159.212 19.7262L193.257 0L227.402 19.7262L214.886 26.9358L193.257 14.5193L171.728 26.9358ZM236.314 39.3523V53.8716L248.831 46.662V32.1427L236.314 24.833L223.798 32.0426L236.314 39.3523ZM180.74 32.1427L193.257 39.3523L205.774 32.1427L193.257 24.833L180.74 32.1427ZM227.402 44.5592L214.886 37.3497L193.257 49.7662L171.728 37.3497L159.212 44.5592V59.0786L180.74 71.4951V96.3281L193.257 103.538L205.774 96.3281V71.4951L227.402 59.0786V44.5592ZM236.314 89.1185L214.786 101.535V116.054L248.931 96.3281V56.9758L236.314 64.2855V89.1185ZM214.786 91.2213L227.302 84.0117V69.3923L214.786 76.6019V91.2213ZM180.74 106.742V121.261L193.257 128.471L205.774 121.261V106.742L193.257 113.952L180.74 106.742ZM137.583 46.662L150.1 53.8716V39.3523L162.616 32.1427L150.2 24.833L137.683 32.0426V46.662H137.583ZM150.2 64.2855L137.683 57.0759V96.4282L171.828 116.154V101.635L150.2 89.1185V64.2855ZM171.728 76.702L159.212 69.4924V84.0117L171.728 91.2213V76.702Z" fill="#F0B90B"/>
</svg>
