<svg width="496" height="103" viewBox="0 0 496 103" fill="none" xmlns="http://www.w3.org/2000/svg">
<path d="M274.979 35.0383C276.227 33.556 277.475 31.8396 278.568 29.9672H282.468V33.3219C282.468 33.868 282.468 34.4142 282.39 35.0383H274.979ZM303.455 49.7834C301.426 48.4572 293.625 44.0102 290.348 42.2938H303.221V35.0383H291.206C291.284 34.4922 291.284 34.0241 291.284 33.478V29.9672H301.426V22.7897H282.078C282.702 21.2293 283.171 19.669 283.639 18.1867L275.447 16.4703C273.887 22.2436 270.844 27.9388 266.865 31.6836C268.425 32.4637 270.922 33.868 272.794 35.0383H267.567V42.2938H280.518C278.568 46.1947 274.589 50.0175 266.631 53.1382C268.659 54.6205 271.234 57.5071 272.482 59.3795C279.504 56.1028 284.029 52.1239 286.837 48.1451C290.348 50.5636 294.717 53.7623 296.901 55.7127L303.455 49.7834ZM319.292 64.1385V68.5074H287.071V64.1385H319.292ZM287.071 79.8199V75.2169H319.292V79.8199H287.071ZM277.943 89.806H287.071V87.2314H319.292V89.728H328.81V56.883H277.943V89.806ZM326.314 44.0102H314.455V30.8254H326.314V44.0102ZM305.873 22.6336V52.202H335.52V22.6336H305.873Z" fill="#F0B90B"/>
<path d="M408.465 51.3438C411.43 51.3438 414.707 51.1877 416.345 50.6416C416.033 48.5352 415.643 45.1805 415.487 42.7619C413.77 43.152 410.494 43.3861 408.309 43.3861H396.919C394.422 43.3861 393.954 42.2938 393.954 39.4072V34.2581H413.146V26.3004H393.954V17.0945H384.748V39.2512C384.748 47.911 387.245 51.3438 396.607 51.3438H408.465ZM358.067 59.6916C361.031 62.1101 364.62 65.1527 366.57 67.1812L370.315 63.5144V66.0889C365.634 68.5855 361.031 70.926 357.52 72.4863C357.91 68.9755 358.067 65.4648 358.067 62.5002V59.6916ZM370.315 52.6701V61.4859C367.975 59.4575 364.62 56.7269 361.967 54.8545L358.067 58.2092V52.6701H370.315ZM379.053 44.8684H349.485V62.4221C349.485 69.2096 349.173 77.7914 345.038 83.8767C346.676 84.969 350.187 88.3237 351.513 90.1181C354.478 86.0612 356.194 80.7561 357.052 75.4509L359.003 80.9121C362.513 78.6496 366.414 75.997 370.315 73.1884V81.1461C370.315 82.1604 370.003 82.4724 368.989 82.4724C368.053 82.4724 365.01 82.4724 362.201 82.3164C363.372 84.3448 364.62 87.3875 365.01 89.5719C369.769 89.5719 373.28 89.4159 375.776 88.2457C378.351 86.9974 379.053 85.047 379.053 81.2242V44.8684ZM367.194 25.4422C368.209 27.3146 369.301 29.4991 370.471 31.7616L359.081 32.6198C362.513 28.7189 366.024 24.194 368.677 19.669L359.315 17.0164C356.428 23.1798 351.669 29.187 350.109 30.9034C348.548 32.6198 347.222 33.712 345.818 34.0241C346.754 36.3646 348.236 40.5775 348.705 42.3719C350.967 41.4357 354.166 40.9676 373.904 39.0171C374.684 40.8895 375.386 42.5279 375.854 43.9322L383.968 40.6555C382.096 35.9745 377.961 28.3289 374.684 22.7117L367.194 25.4422ZM397.621 81.1461C394.5 81.1461 393.954 80.7561 393.954 78.0255V69.5217H413.692V61.3299H393.954V53.5282H384.748V78.0255C384.748 86.5293 387.011 89.2599 396.217 89.2599H407.295C414.707 89.2599 417.125 86.2172 418.061 75.997C415.643 75.4509 411.898 74.0466 410.026 72.6423C409.636 79.8199 409.089 81.1461 406.437 81.1461H397.621Z" fill="#F0B90B"/>
<path d="M485.702 44.6343H481.021V40.3434H485.702V44.6343ZM485.702 54.4644H481.021V50.0175H485.702V54.4644ZM471.347 50.0175H476.028V54.4644H471.347V50.0175ZM471.347 40.3434H476.028V44.6343H471.347V40.3434ZM474.623 34.6482H465.183V60.1597H474.857V64.5286H463.467V71.7061H474.857V79.7418H482.659V71.7061H493.347V64.5286H482.659V60.1597H492.021V34.6482H482.425V30.5913H493.191V23.4918H482.425V16.9384H474.623V23.4918H463.545V30.5913H474.623V34.6482ZM462.375 29.9672C461.049 26.7685 458.318 21.7755 455.899 18.1087L449.112 20.3712C451.374 24.272 454.105 29.4991 455.353 32.8538L462.375 29.9672ZM444.665 74.5147C445.757 71.004 447.006 65.6208 448.41 60.9398L442.403 59.4575C441.934 63.4364 440.764 69.2876 439.828 73.0324L444.665 74.5147ZM448.332 74.5927L439.75 76.3871V57.039H447.942V55.4787C448.722 57.039 450.048 60.1597 450.438 61.876C451.14 61.1739 453.325 60.6278 454.729 60.6278H456.133C454.729 68.7415 452.311 75.841 448.956 80.9121L448.332 74.5927ZM430.934 36.5206C433.041 34.0241 434.991 31.3715 436.863 28.5629C440.062 30.9814 443.339 33.79 445.601 36.5206H430.934ZM461.205 52.8261L459.878 53.0601H457.772C460.112 47.4429 462.765 39.7973 464.325 35.5844L459.176 34.1021L457.85 34.7262H448.722V42.6059H454.729C453.247 46.8968 451.609 51.4218 450.75 52.6701C449.892 54.1524 449.034 54.6985 447.942 55.0886V49.5494H439.75V43.8542H445.757V36.6766C446.147 37.2228 446.537 37.6909 446.927 38.159L450.126 30.8254C448.098 28.1728 444.353 24.8961 440.452 22.1655C440.998 21.0733 441.544 19.9031 442.012 18.8108L435.225 16.4703C432.182 23.4918 426.877 30.2013 421.65 34.6482C422.742 36.6766 424.537 41.1236 424.927 42.918C426.019 41.9038 427.111 40.8895 428.203 39.7193V43.8542H433.197V49.5494H424.303V57.039H433.197V77.6354C429.296 78.2595 425.707 78.9617 422.82 79.5078L424.849 87.7776C431.558 86.1392 440.14 84.0328 448.254 81.9263C447.552 82.8625 446.771 83.7987 445.991 84.5789C447.63 85.5931 450.438 88.4797 451.53 90.1961C453.949 87.6215 456.133 84.2668 457.928 80.0539C462.687 87.0754 469.63 88.6357 479.148 88.6357C483.907 88.6357 489.291 88.4797 493.581 88.2457C493.894 85.9832 494.908 82.0823 496 80.288C491.085 80.8341 484.063 81.1461 479.538 81.1461C471.035 81.1461 464.481 79.8979 460.736 72.3303C462.297 67.0251 463.545 61.0178 464.325 54.3864L461.205 52.8261ZM424.849 61.642C425.941 66.0889 426.955 71.8622 427.189 75.607L432.494 73.9686C432.182 70.2238 431.012 64.6066 429.842 60.2377L424.849 61.642Z" fill="#F0B90B"/>
<path d="M177.714 59.6718H153.531V55.5899H144.443V59.6718H121.877V84.6251H130.734V67.2964H144.443V88.2449H153.531V67.2964H168.703V75.9992C168.703 76.9234 168.241 77.2315 167.009 77.3085C166.007 77.3085 161.387 77.3085 157.69 77.1545C158.845 79.2339 160.154 82.3916 160.693 84.7021C166.393 84.7021 170.628 84.7021 173.632 83.4698C176.79 82.2376 177.714 80.1581 177.714 76.0763V59.6718ZM137.203 36.7979C138.667 40.8797 139.822 46.1939 140.053 49.6596L144.058 48.4274C143.75 44.9616 142.517 39.7245 141.131 35.6426L137.203 36.7979ZM172.015 30.4825C170.937 33.4091 169.55 35.9507 167.702 38.2612C165.776 35.7967 164.313 33.2551 163.081 30.4825H172.015ZM184.26 30.4825V23.628H165.391C166.162 21.7797 166.932 19.8542 167.471 17.9288L159.846 16.3115C158.306 22.2418 155.071 27.6329 150.912 31.4837V28.249H146.291C147.909 26.0926 149.988 23.166 152.145 20.1623L144.751 17.6208C143.75 20.2393 141.901 24.1672 140.438 26.6317L144.366 28.249H137.896V16.3115H129.964V28.249H123.186L128.038 26.0156C127.268 23.7821 125.266 20.3163 123.34 17.7748L117.025 20.4704C118.642 22.8579 120.26 25.9385 121.03 28.249H117.179V56.052H123.648V47.8882C124.804 48.5044 126.344 49.1975 127.037 49.7366C128.423 46.5019 129.656 41.4189 130.272 36.7208L125.805 35.7967C125.42 39.3394 124.804 43.1132 123.648 46.1939V33.6402H131.119V55.3588H136.741V33.6402H144.366V54.2036H150.912V34.3333C152.376 35.7966 153.916 37.568 154.763 38.5692C155.918 37.7221 156.997 36.6438 157.998 35.4886C159.384 38.1842 160.847 40.7257 162.619 43.1132C159.384 45.5777 155.456 47.3491 150.989 48.8124C152.376 50.4298 154.532 53.9725 155.225 55.6669C160 53.8955 164.236 51.662 167.779 48.8124C171.476 52.1241 175.712 54.8197 180.641 56.5911C181.642 54.7427 183.798 51.8161 185.493 50.3528C180.795 48.8895 176.636 46.656 173.17 43.7294C176.251 40.0326 178.638 35.6426 180.41 30.4825H184.26Z" fill="#F0B90B"/>
<path d="M203.206 33.0241H249.031V41.7269H258.812V24.5523H231.626C230.47 21.9337 228.853 18.622 227.39 16.0034L217.763 18.2369C218.687 20.1623 219.765 22.3958 220.689 24.5523H193.887V41.7269H203.206V33.0241ZM235.938 54.6657C234.013 59.0556 231.394 62.7524 228.16 65.9101C223.847 64.2927 219.688 62.7524 215.529 61.2891C216.915 59.2867 218.302 57.0532 219.765 54.6657H235.938ZM260.276 54.6657V46.0398H224.463C226.08 42.8822 227.544 39.8015 228.776 36.7208L218.533 34.7184C217.146 38.2612 215.298 42.189 213.296 46.0398H192.424V54.6657H208.367C205.979 58.5165 203.514 62.1363 201.204 65.1399L201.05 65.294C206.826 67.1424 213.142 69.5299 219.38 72.0714C212.217 75.8452 203.283 78.2327 192.655 79.696C194.427 81.6985 197.122 85.9344 198.123 88.1678C210.6 85.7803 221.151 82.1606 229.546 76.3843C238.634 80.4662 246.952 84.7791 252.42 88.3989L259.891 80.6202C254.191 77.1545 246.105 73.3037 237.325 69.6069C241.099 65.525 244.256 60.5189 246.567 54.6657H260.276Z" fill="#F0B90B"/>
<path d="M44.3593 -0.373127L17.1536 15.3302L27.1557 21.1315L44.3593 11.2294L61.563 21.1315L71.5651 15.3302L44.3593 -0.373127Z" fill="#F0B90B"/>
<path d="M61.563 29.3332L71.5651 35.1345V46.7369L54.3615 56.6391V76.4433L44.3593 82.2445L34.3572 76.4433V56.6391L17.1536 46.7369V35.1345L27.1557 29.3332L44.3593 39.2353L61.563 29.3332Z" fill="#F0B90B"/>
<path d="M71.5651 54.9387V66.5412L61.563 72.3424V60.7399L71.5651 54.9387Z" fill="#F0B90B"/>
<path d="M61.4631 80.5442L78.6667 70.6421V50.8378L88.6689 45.0366V76.4433L61.4631 92.1466V80.5442Z" fill="#F0B90B"/>
<path d="M78.6667 31.0336L68.6646 25.2324L78.6667 19.4311L88.6689 25.2324V36.8348L78.6667 42.6361V31.0336Z" fill="#F0B90B"/>
<path d="M34.3572 96.3476V84.7451L44.3593 90.5463L54.3615 84.7451V96.3476L44.3593 102.149L34.3572 96.3476Z" fill="#F0B90B"/>
<path d="M27.1557 72.3424L17.1536 66.5412V54.9387L27.1557 60.7399V72.3424Z" fill="#F0B90B"/>
<path d="M44.3593 31.0336L34.3572 25.2324L44.3593 19.4311L54.3615 25.2324L44.3593 31.0336Z" fill="#F0B90B"/>
<path d="M20.0541 25.2324L10.052 31.0336V42.6361L0.0498153 36.8348V25.2324L10.052 19.4311L20.0541 25.2324Z" fill="#F0B90B"/>
<path d="M0.0498153 45.0366L10.052 50.8378V70.6421L27.2556 80.5442V92.1466L0.0498153 76.4433V45.0366Z" fill="#F0B90B"/>
</svg>
