<svg width="1100" height="103" viewBox="0 0 1100 103" fill="none" xmlns="http://www.w3.org/2000/svg">
<path d="M545.959 37.8543C545.959 34.0925 549.32 31.1311 555.083 31.1311C560.205 31.1311 565.248 33.1321 570.29 36.8938L575.573 29.4503C569.89 24.8882 563.407 22.407 555.243 22.407C544.118 22.407 536.114 28.9701 536.114 38.7347C536.114 49.1395 542.837 52.6612 554.763 55.5425C565.168 57.9437 567.409 60.1047 567.409 64.1866C567.409 68.5086 563.567 71.3099 557.484 71.3099C550.521 71.3099 545.158 68.6687 539.796 64.0265L533.873 71.0698C540.596 77.0726 548.68 80.034 557.244 80.034C569.01 80.034 577.253 73.7911 577.253 63.2261C577.253 53.8618 571.091 49.6198 559.245 46.7384C548.52 44.1772 545.959 42.2563 545.959 37.8543Z" fill="#F0B90B"/>
<path d="M632.451 39.0548V79.2336H642.296V23.2074H631.811L614.763 49.6998L597.715 23.2074H587.23V79.2336H596.914V39.2149L614.443 65.4672H614.763L632.451 39.0548Z" fill="#F0B90B"/>
<path d="M684.088 22.8072H674.964L650.313 79.2336H660.397L666.16 65.7073H692.652L698.335 79.2336H708.74L684.088 22.8072ZM689.051 56.9832H669.762L679.366 34.5727L689.051 56.9832Z" fill="#F0B90B"/>
<path d="M764.289 79.2336L749.162 58.0237C757.006 55.8627 762.528 50.2601 762.528 40.9757C762.528 30.0106 754.604 23.2074 741.718 23.2074H716.747V79.2336H726.591V59.7045H738.917L752.684 79.2336H764.289ZM752.523 41.536C752.523 47.2987 748.041 50.9804 740.998 50.9804H726.591V32.1716H740.918C748.201 32.1716 752.523 35.3731 752.523 41.536Z" fill="#F0B90B"/>
<path d="M796.442 32.3317H814.21V23.2074H768.749V32.3317H786.517V79.2336H796.442V32.3317Z" fill="#F0B90B"/>
<path d="M891.786 70.2694L885.463 63.8664C880.661 68.3485 876.259 71.1498 869.376 71.1498C858.651 71.1498 850.887 62.1856 850.887 51.1405C850.887 40.0953 858.651 31.2912 869.376 31.2912C875.779 31.2912 880.581 34.0925 885.063 38.2544L891.386 30.971C886.023 25.8486 879.78 22.247 869.456 22.247C852.488 22.247 840.562 35.2931 840.562 51.3005C840.562 67.4681 852.728 80.1941 869.055 80.1941C879.54 80.1941 885.943 76.3523 891.786 70.2694Z" fill="#F0B90B"/>
<path d="M937.11 55.6226V79.2336H946.954V23.2074H937.11V46.4983H910.377V23.2074H900.533V79.2336H910.377V55.6226H937.11Z" fill="#F0B90B"/>
<path d="M988.715 22.8072H979.591L954.939 79.2336H965.024L970.787 65.7073H997.279L1002.96 79.2336H1013.37L988.715 22.8072ZM993.677 56.9832H974.388L983.993 34.5727L993.677 56.9832Z" fill="#F0B90B"/>
<path d="M1021.93 23.2074V79.2336H1031.78V23.2074H1021.93Z" fill="#F0B90B"/>
<path d="M1084.31 61.9455L1054.3 23.2074H1045.18V79.2336H1054.86V39.375L1085.75 79.2336H1094V23.2074H1084.31V61.9455Z" fill="#F0B90B"/>
<path d="M167.2 63.6692V63.4692C167.2 55.9669 163.199 52.1658 156.697 49.665C160.698 47.4643 164.099 43.8633 164.099 37.5614V37.3613C164.099 28.5586 156.997 22.8569 145.594 22.8569H119.486V78.9739H146.194C158.798 79.0739 167.2 73.8723 167.2 63.6692ZM151.796 39.662C151.796 43.8633 148.395 45.5638 142.893 45.5638H131.49V33.6602H143.693C148.895 33.6602 151.796 35.7608 151.796 39.4619V39.662ZM154.897 62.1688C154.897 66.3701 151.596 68.2706 146.194 68.2706H131.49V55.8669H145.794C152.096 55.8669 154.897 58.1676 154.897 61.9687V62.1688ZM193.108 79.0739V22.9569H180.705V79.0739H193.108ZM259.528 79.0739V22.9569H247.325V57.5674L221.017 22.9569H209.613V79.0739H221.817V43.3631L249.025 79.0739H259.528ZM327.949 79.0739L303.842 22.5568H292.438L268.331 79.0739H280.935L286.036 66.4701H309.744L314.845 79.0739H327.949ZM305.442 55.5668H290.538L298.04 37.3613L305.442 55.5668ZM386.767 79.0739V22.9569H374.563V57.5674L348.255 22.9569H336.852V79.0739H349.056V43.3631L376.264 79.0739H386.767ZM450.586 69.9712L442.684 62.0688C438.282 66.07 434.381 68.6708 427.879 68.6708C418.276 68.6708 411.574 60.6683 411.574 51.0654V50.8654C411.574 41.2625 418.376 33.3601 427.879 33.3601C433.481 33.3601 437.882 35.7608 442.284 39.662L450.186 30.5592C444.984 25.4577 438.683 21.8566 428.079 21.8566C410.874 21.8566 398.77 34.9606 398.77 50.8654V51.0654C398.77 67.1703 411.074 79.9742 427.579 79.9742C438.383 79.9742 444.784 76.173 450.586 69.9712ZM503.302 79.0739V68.0706H472.793V56.267H499.301V45.2637H472.793V33.8602H502.902V22.8569H460.589V78.9739H503.302V79.0739ZM17.1551 15.4547L44.3633 -0.250076L71.5714 15.4547L61.5684 21.2564L44.3633 11.3534L27.1581 21.2564L17.1551 15.4547ZM71.5714 35.2607L61.5684 29.4589L44.3633 39.3619L27.1581 29.4589L17.1551 35.2607V46.8642L34.3602 56.7672V76.5731L44.3633 82.3749L54.3663 76.5731V56.7672L71.5714 46.8642V35.2607ZM71.5714 66.6702V55.0667L61.5684 60.8684V72.4719L71.5714 66.6702ZM78.6737 70.7714L61.4685 80.6744V92.2779L88.6767 76.5731V45.1637L78.6737 50.9654V70.7714ZM68.6707 25.3577L78.6737 31.1594V42.7629L88.6767 36.9612V25.3577L78.6737 19.5559L68.6707 25.3577ZM34.3602 84.8757V96.4792L44.3633 102.281L54.3663 96.4792V84.8757L44.3633 90.6774L34.3602 84.8757ZM17.1551 66.6702L27.1581 72.4719V60.8684L17.1551 55.0667V66.6702ZM34.3602 25.3577L44.3633 31.1594L54.3663 25.3577L44.3633 19.5559L34.3602 25.3577ZM10.0528 31.1594L20.0559 25.3577L10.0528 19.5559L0.0498198 25.3577V36.9612L10.0528 42.7629V31.1594ZM10.0528 50.9654L0.0498198 45.1637V76.5731L27.258 92.2779V80.6744L10.0528 70.7714V50.9654Z" fill="#F0B90B"/>
</svg>
